<?xml version="1.0" encoding="UTF-8"?>
<svg width="515px" height="518px" viewBox="0 0 515 518" version="1.1" xmlns="http://www.w3.org/2000/svg" xmlns:xlink="http://www.w3.org/1999/xlink">
    <!-- Generator: Sketch 48.2 (47327) - http://www.bohemiancoding.com/sketch -->
    <title>login (1)</title>
    <desc>Created with Sketch.</desc>
    <defs></defs>
    <g id="Page-1" stroke="none" stroke-width="1" fill="none" fill-rule="evenodd">
        <g id="login-(1)" fill="#FFFFFF" fill-rule="nonzero">
            <path d="M216.695541,331.425244 C204.360115,343.758276 204.360115,363.75813 216.695541,376.093268 C222.863254,382.260837 230.945085,385.345675 239.031127,385.345675 C247.112958,385.345675 255.199,382.260837 261.364607,376.093268 L356.118704,281.343488 C356.849396,280.612813 357.542184,279.844236 358.199175,279.046179 C359.106749,277.864886 359.595281,277.231073 360.043804,276.563569 C360.812399,275.335951 361.248287,274.634756 361.637849,273.908293 C362.231668,272.733317 362.619124,271.93526 362.96236,271.109829 C363.406671,269.989602 363.728849,269.109423 364.002595,268.206081 C364.337408,267.029 364.573251,266.134081 364.754344,265.220211 C364.804882,264.965423 364.828045,264.704317 364.872266,264.447423 C365.004927,263.689374 365.135483,262.931325 365.213396,262.156431 C365.318683,261.112008 365.373432,260.061268 365.373432,259.004211 C365.373432,257.945049 365.318683,256.894309 365.213396,255.851992 C365.135483,255.07078 365.002822,254.306415 364.868054,253.542049 C364.823834,253.291472 364.802776,253.036683 364.752239,252.788211 C364.569039,251.868024 364.333196,250.968894 364.072085,250.080293 C363.724637,248.892683 363.398248,248.008293 363.044483,247.134431 C362.612807,246.071057 362.223245,245.266683 361.812625,244.474943 C361.239864,243.371561 360.803976,242.66826 360.357559,241.971276 C359.591069,240.779455 359.102538,240.141431 358.605583,239.511829 C357.537973,238.164187 356.845184,237.39561 356.114492,236.664935 L261.360396,141.913049 C249.027076,129.577911 229.026755,129.577911 216.691329,141.913049 C204.355903,154.248187 204.355903,174.245935 216.691329,186.581073 L257.527949,227.418846 L31.5861027,227.418846 C14.1421511,227.418846 0,241.560667 0,259.004211 C0,276.447756 14.1421511,290.589577 31.5861027,290.589577 L257.53216,290.589577 L216.695541,331.425244 Z" id="XMLID_10_"></path>
            <path d="M256.522045,0.631707317 C170.302514,0.631707317 90.0843414,43.4025041 41.9408036,115.04022 C32.2101782,129.518951 36.0594713,149.143992 50.5385408,158.872285 C65.0176103,168.602683 84.6431088,164.75348 94.3716284,150.274748 C130.760924,96.1290081 191.378867,63.802439 256.522045,63.802439 C364.15906,63.802439 451.726266,151.369707 451.726266,259.002106 C451.726266,366.634504 364.156955,454.201772 256.522045,454.201772 C191.572595,454.201772 131.051517,422.020496 94.6348459,368.116911 C84.868423,353.663447 65.2345015,349.860569 50.7785952,359.626764 C36.3247946,369.392959 32.5218278,389.026423 42.2882508,403.481992 C90.4717976,474.797537 170.559414,517.372504 256.522045,517.372504 C398.992215,517.372504 514.898471,401.466846 514.898471,259.002106 C514.898471,116.537366 398.990109,0.631707317 256.522045,0.631707317 Z" id="XMLID_11_"></path>
        </g>
    </g>
</svg>