<?xml version="1.0" encoding="UTF-8" standalone="no"?>
<svg
   xmlns:dc="http://purl.org/dc/elements/1.1/"
   xmlns:cc="http://creativecommons.org/ns#"
   xmlns:rdf="http://www.w3.org/1999/02/22-rdf-syntax-ns#"
   xmlns:svg="http://www.w3.org/2000/svg"
   xmlns="http://www.w3.org/2000/svg"
   version="1.1"
   id="svg10"
   xml:space="preserve"
   width="365.01468"
   height="78.937469"
   viewBox="0 0 365.01468 78.937469"><metadata
     id="metadata16"><rdf:RDF><cc:Work
         rdf:about=""><dc:format>image/svg+xml</dc:format><dc:type
           rdf:resource="http://purl.org/dc/dcmitype/StillImage" /><dc:title></dc:title></cc:Work></rdf:RDF></metadata><defs
     id="defs14"><clipPath
       clipPathUnits="userSpaceOnUse"
       id="clipPath26"><path
         d="M 0,29.602 C 0,13.253 13.253,0 29.602,0 V 0 C 45.95,0 59.203,13.253 59.203,29.602 v 0 c 0,16.348 -13.253,29.601 -29.601,29.601 v 0 C 13.253,59.203 0,45.95 0,29.602"
         id="path24" /></clipPath><linearGradient
       x1="0"
       y1="0"
       x2="1"
       y2="0"
       gradientUnits="userSpaceOnUse"
       gradientTransform="matrix(-20.365616,-45.404327,-45.404327,20.365616,41.027344,55.075684)"
       spreadMethod="pad"
       id="linearGradient40"><stop
         style="stop-opacity:1;stop-color:#f2b81a"
         offset="0"
         id="stop32" /><stop
         style="stop-opacity:1;stop-color:#e78c00"
         offset="0.292191"
         id="stop34" /><stop
         style="stop-opacity:1;stop-color:#be1e2d"
         offset="0.95869037"
         id="stop36" /><stop
         style="stop-opacity:1;stop-color:#be1e2d"
         offset="1"
         id="stop38" /></linearGradient><clipPath
       clipPathUnits="userSpaceOnUse"
       id="clipPath50"><path
         d="M 29.602,59.203 C 13.253,59.203 0,45.95 0,29.602 v 0 C 0,13.253 13.253,0 29.602,0 V 0 C 45.95,0 59.203,13.253 59.203,29.602 v 0 c 0,16.348 -13.253,29.601 -29.601,29.601 z"
         id="path48" /></clipPath><clipPath
       clipPathUnits="userSpaceOnUse"
       id="clipPath114"><path
         d="M 0,59.203 H 273.761 V 0 H 0 Z"
         id="path112" /></clipPath></defs><g
     id="g18"
     transform="matrix(1.3333333,0,0,-1.3333333,0,78.937467)"><g
       id="g20"><g
         id="g22"
         clip-path="url(#clipPath26)"><g
           id="g28"><g
             id="g30"><path
               d="M 0,29.602 C 0,13.253 13.253,0 29.602,0 V 0 C 45.95,0 59.203,13.253 59.203,29.602 v 0 c 0,16.348 -13.253,29.601 -29.601,29.601 v 0 C 13.253,59.203 0,45.95 0,29.602"
               style="fill:url(#linearGradient40);stroke:none"
               id="path42" /></g></g></g></g><g
       id="g44"><g
         id="g46"
         clip-path="url(#clipPath50)"><g
           id="g52"
           transform="translate(30.7549,69.7246)"><path
             d="m 0,0 c -9.997,0 -17.501,-4.056 -19.118,-10.331 -1.046,-4.055 0.5,-8.551 4.352,-12.66 3.96,-4.225 9.847,-7.507 16.578,-9.242 3.283,-0.846 6.578,-1.276 9.791,-1.276 9.996,0 17.5,4.055 19.117,10.33 2.201,8.535 -7.189,18.361 -20.929,21.903 C 6.507,-0.43 3.213,0 0,0 m 11.603,-35.395 c -3.372,0 -6.825,0.45 -10.263,1.336 -7.071,1.823 -13.278,5.295 -17.482,9.779 -4.309,4.596 -6.015,9.718 -4.802,14.42 1.839,7.135 10.06,11.746 20.944,11.746 3.372,0 6.823,-0.45 10.262,-1.336 14.747,-3.803 24.743,-14.658 22.284,-24.199 -1.84,-7.135 -10.061,-11.746 -20.943,-11.746"
             style="fill:#ffffff;fill-opacity:1;fill-rule:nonzero;stroke:none"
             id="path54" /></g><g
           id="g56"
           transform="translate(21.4688,43.3643)"><path
             d="m 0,0 c 0,-1.813 -1.468,-3.28 -3.279,-3.28 -1.812,0 -3.281,1.467 -3.281,3.28 0,1.811 1.469,3.278 3.281,3.278 C -1.468,3.278 0,1.811 0,0"
             style="fill:#ffffff;fill-opacity:1;fill-rule:nonzero;stroke:none"
             id="path58" /></g><g
           id="g60"
           transform="translate(43.0186,47.9727)"><path
             d="m 0,0 c 0,-1.45 -1.175,-2.624 -2.623,-2.624 -1.449,0 -2.624,1.174 -2.624,2.624 0,1.447 1.175,2.623 2.624,2.623 C -1.175,2.623 0,1.447 0,0"
             style="fill:#ffffff;fill-opacity:1;fill-rule:nonzero;stroke:none"
             id="path62" /></g><g
           id="g64"
           transform="translate(45.1875,20.5693)"><path
             d="m 0,0 c 0,-2.15 -1.746,-3.895 -3.896,-3.895 -2.151,0 -3.895,1.745 -3.895,3.895 0,2.15 1.744,3.895 3.895,3.895 C -1.746,3.895 0,2.15 0,0"
             style="fill:#ffffff;fill-opacity:1;fill-rule:nonzero;stroke:none"
             id="path66" /></g><g
           id="g68"
           transform="translate(28.5391,65.3359)"><path
             d="m 0,0 c -12.279,0 -21.998,-5.695 -24.184,-14.171 -1.388,-5.389 0.33,-11.26 4.84,-16.53 4.591,-5.365 11.498,-9.449 19.45,-11.499 3.544,-0.913 7.121,-1.376 10.63,-1.376 12.28,0 21.998,5.694 24.183,14.17 C 37.82,-18.151 26.924,-5.577 10.63,-1.377 7.087,-0.464 3.511,0 0,0 m 10.736,-45.462 c -3.669,0 -7.403,0.483 -11.1,1.437 -8.323,2.145 -15.573,6.442 -20.412,12.098 -4.922,5.751 -6.781,12.225 -5.233,18.227 2.404,9.322 12.856,15.585 26.009,15.585 3.67,0 7.404,-0.484 11.101,-1.436 17.3,-4.46 28.804,-18.064 25.644,-30.326 -2.403,-9.321 -12.856,-15.585 -26.009,-15.585"
             style="fill:#ffffff;fill-opacity:1;fill-rule:nonzero;stroke:none"
             id="path70" /></g><g
           id="g72"
           transform="translate(37.8018,81.3818)"><path
             d="m 0,0 c -8.548,0 -15.46,-4.535 -17.2,-11.285 -1.057,-4.098 -0.071,-8.473 2.779,-12.32 2.893,-3.908 7.345,-6.796 12.537,-8.135 2.016,-0.52 4.069,-0.783 6.096,-0.783 8.548,0 15.459,4.535 17.199,11.285 2.2,8.534 -4.67,17.711 -15.314,20.455 C 4.079,-0.264 2.028,0 0,0 m 4.212,-34.409 c -2.187,0 -4.397,0.284 -6.566,0.843 -5.61,1.446 -10.434,4.586 -13.583,8.838 -3.193,4.314 -4.291,9.254 -3.089,13.914 1.959,7.596 9.605,12.7 19.026,12.7 2.187,0 4.396,-0.284 6.567,-0.844 11.651,-3.003 19.129,-13.209 16.67,-22.751 -1.959,-7.597 -9.603,-12.7 -19.025,-12.7"
             style="fill:#ffffff;fill-opacity:1;fill-rule:nonzero;stroke:none"
             id="path74" /></g></g></g><g
       id="g76"
       transform="translate(102.9463,25.8896)"><path
         d="M 0,0 -4.286,11.855 -8.611,0 Z m 1.642,-4.486 h -11.896 l -2.323,-6.328 h -5.287 L -7.29,17.062 h 6.168 L 9.452,-10.814 H 3.965 Z"
         style="fill:#414042;fill-opacity:1;fill-rule:nonzero;stroke:none"
         id="path78" /></g><g
       id="g80"
       transform="translate(102.9463,25.8896)"><path
         d="M 0,0 -4.286,11.855 -8.611,0 Z m 1.642,-4.486 h -11.896 l -2.323,-6.328 h -5.287 L -7.29,17.062 h 6.168 L 9.452,-10.814 H 3.965 Z"
         style="fill:none;stroke:#414042;stroke-width:1.185;stroke-linecap:round;stroke-linejoin:round;stroke-miterlimit:10;stroke-dasharray:none;stroke-opacity:1"
         id="path82" /></g><g
       id="g84"
       transform="translate(141.0752,42.9517)"><path
         d="m 0,0 v -27.876 h -5.287 l -13.217,18.423 v -18.423 h -5.287 V 0 h 5.287 L -5.287,-18.384 V 0 Z"
         style="fill:#414042;fill-opacity:1;fill-rule:nonzero;stroke:none"
         id="path86" /></g><g
       id="g88"
       transform="translate(141.0752,42.9517)"><path
         d="m 0,0 v -27.876 h -5.287 l -13.217,18.423 v -18.423 h -5.287 V 0 h 5.287 L -5.287,-18.384 V 0 Z"
         style="fill:none;stroke:#414042;stroke-width:1.185;stroke-linecap:round;stroke-linejoin:round;stroke-miterlimit:10;stroke-dasharray:none;stroke-opacity:1"
         id="path90" /></g><g
       id="g92"
       transform="translate(154.9736,38.1055)"><path
         d="M 0,0 H -7.931 V 4.846 H 13.217 V 0 H 5.287 V -23.03 H 0 Z"
         style="fill:#414042;fill-opacity:1;fill-rule:nonzero;stroke:none"
         id="path94" /></g><g
       id="g96"
       transform="translate(154.9736,38.1055)"><path
         d="M 0,0 H -7.931 V 4.846 H 13.217 V 0 H 5.287 V -23.03 H 0 Z"
         style="fill:none;stroke:#414042;stroke-width:1.185;stroke-linecap:round;stroke-linejoin:round;stroke-miterlimit:10;stroke-dasharray:none;stroke-opacity:1"
         id="path98" /></g><g
       id="g100"
       transform="translate(187.4561,25.8896)"><path
         d="M 0,0 -4.286,11.855 -8.611,0 Z m 1.642,-4.486 h -11.896 l -2.323,-6.328 h -5.286 l 10.574,27.876 h 6.167 L 9.453,-10.814 H 3.965 Z"
         style="fill:#414042;fill-opacity:1;fill-rule:nonzero;stroke:none"
         id="path102" /></g><g
       id="g104"
       transform="translate(187.4561,25.8896)"><path
         d="M 0,0 -4.286,11.855 -8.611,0 Z m 1.642,-4.486 h -11.896 l -2.323,-6.328 h -5.286 l 10.574,27.876 h 6.167 L 9.453,-10.814 H 3.965 Z"
         style="fill:none;stroke:#414042;stroke-width:1.185;stroke-linecap:round;stroke-linejoin:round;stroke-miterlimit:10;stroke-dasharray:none;stroke-opacity:1"
         id="path106" /></g><g
       id="g108"><g
         id="g110"
         clip-path="url(#clipPath114)"><g
           id="g116"
           transform="translate(207.0811,30.3354)"><path
             d="M 0,0 H 4.807 C 6.568,0 7.871,0.306 8.712,0.921 9.553,1.535 9.973,2.576 9.973,4.045 9.973,5.46 9.559,6.461 8.731,7.049 7.903,7.636 6.582,7.93 4.767,7.93 H 0 Z M 10.654,-15.26 4.967,-4.646 H 0 V -15.26 H -5.287 V 12.616 H 4.767 c 3.604,0 6.301,-0.721 8.09,-2.162 1.789,-1.442 2.684,-3.539 2.684,-6.289 0,-1.949 -0.44,-3.604 -1.322,-4.966 -0.881,-1.362 -2.19,-2.377 -3.925,-3.044 l 6.168,-11.415 z"
             style="fill:#414042;fill-opacity:1;fill-rule:nonzero;stroke:none"
             id="path118" /></g><g
           id="g120"
           transform="translate(207.0811,30.3354)"><path
             d="M 0,0 H 4.807 C 6.568,0 7.871,0.306 8.712,0.921 9.553,1.535 9.973,2.576 9.973,4.045 9.973,5.46 9.559,6.461 8.731,7.049 7.903,7.636 6.582,7.93 4.767,7.93 H 0 Z M 10.654,-15.26 4.967,-4.646 H 0 V -15.26 H -5.287 V 12.616 H 4.767 c 3.604,0 6.301,-0.721 8.09,-2.162 1.789,-1.442 2.684,-3.539 2.684,-6.289 0,-1.949 -0.44,-3.604 -1.322,-4.966 -0.881,-1.362 -2.19,-2.377 -3.925,-3.044 l 6.168,-11.415 z"
             style="fill:none;stroke:#414042;stroke-width:1.185;stroke-linecap:round;stroke-linejoin:round;stroke-miterlimit:10;stroke-dasharray:none;stroke-opacity:1"
             id="path122" /></g><g
           id="g124"
           transform="translate(234.7178,38.3057)"><path
             d="m 0,0 v -6.969 h 12.016 v -4.365 H 0 v -7.25 H 12.896 V -23.23 H -5.287 V 4.646 H 12.896 V 0 Z"
             style="fill:#414042;fill-opacity:1;fill-rule:nonzero;stroke:none"
             id="path126" /></g><g
           id="g128"
           transform="translate(234.7178,38.3057)"><path
             d="m 0,0 v -6.969 h 12.016 v -4.365 H 0 v -7.25 H 12.896 V -23.23 H -5.287 V 4.646 H 12.896 V 0 Z"
             style="fill:none;stroke:#414042;stroke-width:1.185;stroke-linecap:round;stroke-linejoin:round;stroke-miterlimit:10;stroke-dasharray:none;stroke-opacity:1"
             id="path130" /></g><g
           id="g132"
           transform="translate(258.5488,15.1953)"><path
             d="m 0,0 c -1.682,0.4 -3.271,0.947 -4.767,1.642 v 5.127 c 3.472,-1.87 6.57,-2.804 9.293,-2.804 1.362,0 2.463,0.294 3.305,0.881 0.841,0.588 1.262,1.415 1.262,2.484 0,0.747 -0.235,1.381 -0.701,1.902 -0.468,0.521 -1.049,0.948 -1.744,1.282 -0.693,0.334 -1.681,0.741 -2.962,1.221 -1.738,0.641 -3.152,1.255 -4.247,1.843 -1.094,0.587 -2.029,1.422 -2.803,2.503 -0.776,1.082 -1.161,2.477 -1.161,4.186 0,2.509 0.867,4.465 2.603,5.867 1.735,1.402 4.111,2.103 7.129,2.103 1.415,0 2.804,-0.154 4.165,-0.461 1.362,-0.307 2.617,-0.754 3.766,-1.341 v -5.007 c -2.698,1.495 -5.301,2.243 -7.811,2.243 -1.389,0 -2.476,-0.247 -3.264,-0.741 -0.788,-0.494 -1.181,-1.195 -1.181,-2.102 0,-0.909 0.406,-1.622 1.222,-2.143 0.813,-0.521 2.075,-1.089 3.784,-1.703 1.789,-0.668 3.258,-1.309 4.406,-1.922 1.147,-0.615 2.143,-1.502 2.984,-2.664 0.841,-1.161 1.288,-2.663 1.341,-4.506 0,-2.643 -0.894,-4.72 -2.683,-6.227 C 10.146,0.153 7.757,-0.601 4.767,-0.601 3.271,-0.601 1.683,-0.4 0,0"
             style="fill:#414042;fill-opacity:1;fill-rule:nonzero;stroke:none"
             id="path134" /></g><g
           id="g136"
           transform="translate(258.5488,15.1953)"><path
             d="m 0,0 c -1.682,0.4 -3.271,0.947 -4.767,1.642 v 5.127 c 3.472,-1.87 6.57,-2.804 9.293,-2.804 1.362,0 2.463,0.294 3.305,0.881 0.841,0.588 1.262,1.415 1.262,2.484 0,0.747 -0.235,1.381 -0.701,1.902 -0.468,0.521 -1.049,0.948 -1.744,1.282 -0.693,0.334 -1.681,0.741 -2.962,1.221 -1.738,0.641 -3.152,1.255 -4.247,1.843 -1.094,0.587 -2.029,1.422 -2.803,2.503 -0.776,1.082 -1.161,2.477 -1.161,4.186 0,2.509 0.867,4.465 2.603,5.867 1.735,1.402 4.111,2.103 7.129,2.103 1.415,0 2.804,-0.154 4.165,-0.461 1.362,-0.307 2.617,-0.754 3.766,-1.341 v -5.007 c -2.698,1.495 -5.301,2.243 -7.811,2.243 -1.389,0 -2.476,-0.247 -3.264,-0.741 -0.788,-0.494 -1.181,-1.195 -1.181,-2.102 0,-0.909 0.406,-1.622 1.222,-2.143 0.813,-0.521 2.075,-1.089 3.784,-1.703 1.789,-0.668 3.258,-1.309 4.406,-1.922 1.147,-0.615 2.143,-1.502 2.984,-2.664 0.841,-1.161 1.288,-2.663 1.341,-4.506 0,-2.643 -0.894,-4.72 -2.683,-6.227 C 10.146,0.153 7.757,-0.601 4.767,-0.601 3.271,-0.601 1.683,-0.4 0,0 Z"
             style="fill:none;stroke:#414042;stroke-width:1.185;stroke-linecap:round;stroke-linejoin:round;stroke-miterlimit:10;stroke-dasharray:none;stroke-opacity:1"
             id="path138" /></g></g></g></g></svg>
