<?xml version="1.0" encoding="UTF-8" standalone="no"?>
<svg
   xmlns:dc="http://purl.org/dc/elements/1.1/"
   xmlns:cc="http://creativecommons.org/ns#"
   xmlns:rdf="http://www.w3.org/1999/02/22-rdf-syntax-ns#"
   xmlns:svg="http://www.w3.org/2000/svg"
   xmlns="http://www.w3.org/2000/svg"
   version="1.1"
   id="svg833"
   xml:space="preserve"
   width="365.73999"
   height="78.937469"
   viewBox="0 0 365.73999 78.937469"><metadata
     id="metadata839"><rdf:RDF><cc:Work
         rdf:about=""><dc:format>image/svg+xml</dc:format><dc:type
           rdf:resource="http://purl.org/dc/dcmitype/StillImage" /><dc:title></dc:title></cc:Work></rdf:RDF></metadata><defs
     id="defs837"><clipPath
       clipPathUnits="userSpaceOnUse"
       id="clipPath849"><path
         d="M 0,59.203 H 274.305 V 0 H 0 Z"
         id="path847" /></clipPath></defs><g
     id="g841"
     transform="matrix(1.3333333,0,0,-1.3333333,0,78.937467)"><g
       id="g843"><g
         id="g845"
         clip-path="url(#clipPath849)"><g
           id="g851"
           transform="translate(45.1631,20.3311)"><path
             d="m 0,0 c -0.126,-2.037 -1.804,-3.655 -3.871,-3.655 -1.934,0 -3.526,1.412 -3.831,3.259 -3.082,0.131 -6.196,0.58 -9.286,1.375 -8.323,2.147 -15.573,6.444 -20.412,12.1 -2.394,2.797 -4.056,5.765 -4.961,8.766 -1.794,-3.818 -2.802,-8.077 -2.802,-12.574 0,-16.348 13.253,-29.602 29.601,-29.602 15.151,0 27.634,11.385 29.384,26.063 C 10.251,2.852 5.487,0.839 0,0"
             style="fill:#ffffff;fill-opacity:1;fill-rule:nonzero;stroke:none"
             id="path853" /></g><g
           id="g855"
           transform="translate(42.3574,34.3311)"><path
             d="m 0,0 c -3.371,0 -6.824,0.449 -10.263,1.335 -4.382,1.13 -8.428,2.895 -11.876,5.14 -0.559,-0.445 -1.258,-0.722 -2.029,-0.722 -1.811,0 -3.28,1.469 -3.28,3.281 0,0.523 0.134,1.009 0.35,1.447 -0.213,0.212 -0.443,0.416 -0.646,0.633 -1.993,2.126 -3.422,4.365 -4.271,6.623 -2.445,-2.099 -4.548,-4.587 -6.204,-7.373 0.604,-3.413 2.309,-6.847 5.057,-10.06 4.591,-5.365 11.498,-9.449 19.45,-11.498 2.988,-0.771 5.997,-1.201 8.973,-1.323 0.521,1.538 1.96,2.651 3.674,2.651 1.572,0 2.92,-0.939 3.536,-2.281 5.93,0.894 10.95,3.214 14.353,6.547 0.008,0.29 0.022,0.579 0.022,0.871 0,3.119 -0.486,6.125 -1.38,8.948 C 11.673,1.545 6.285,0 0,0"
             style="fill:#ffffff;fill-opacity:1;fill-rule:nonzero;stroke:none"
             id="path857" /></g><g
           id="g859"
           transform="translate(35.918,49.6426)"><path
             d="m 0,0 c 0.719,-0.186 1.444,-0.326 2.17,-0.446 0.441,0.829 1.303,1.399 2.308,1.399 1.125,0 2.077,-0.713 2.45,-1.709 2.778,0.098 5.359,0.687 7.632,1.667 -5.352,5.336 -12.72,8.65 -20.876,8.65 -2.292,0 -4.517,-0.279 -6.658,-0.773 0.147,-0.218 0.279,-0.439 0.437,-0.653 C -9.645,4.227 -5.192,1.338 0,0"
             style="fill:#ffffff;fill-opacity:1;fill-rule:nonzero;stroke:none"
             id="path861" /></g><g
           id="g863"
           transform="translate(42.8281,47.001)"><path
             d="m 0,0 c -0.387,-0.967 -1.328,-1.651 -2.433,-1.651 -1.223,0 -2.243,0.84 -2.533,1.974 -0.808,0.131 -1.614,0.286 -2.415,0.492 -5.609,1.447 -10.433,4.586 -13.582,8.839 -0.305,0.412 -0.573,0.835 -0.84,1.258 -3.322,-1.009 -6.405,-2.565 -9.121,-4.597 0.719,-2.22 2.089,-4.453 4.085,-6.582 0.176,-0.187 0.375,-0.362 0.559,-0.546 0.484,0.282 1.04,0.456 1.641,0.456 1.812,0 3.28,-1.468 3.28,-3.279 0,-0.355 -0.071,-0.69 -0.175,-1.01 3.263,-2.119 7.104,-3.789 11.272,-4.863 3.283,-0.845 6.578,-1.275 9.791,-1.275 6.143,0 11.337,1.536 14.81,4.173 C 13.078,-3.393 11.258,-0.46 9.018,2.096 6.363,0.846 3.303,0.104 0,0"
             style="fill:#ffffff;fill-opacity:1;fill-rule:nonzero;stroke:none"
             id="path865" /></g><g
           id="g867"
           transform="translate(103.4902,26.2705)"><path
             d="M 0,0 -4.286,11.855 -8.611,0 Z m 1.642,-4.486 h -11.896 l -2.323,-6.328 h -5.287 L -7.29,17.062 h 6.168 L 9.452,-10.814 H 3.965 Z"
             style="fill:#ffffff;fill-opacity:1;fill-rule:nonzero;stroke:none"
             id="path869" /></g><g
           id="g871"
           transform="translate(103.4902,26.2705)"><path
             d="M 0,0 -4.286,11.855 -8.611,0 Z m 1.642,-4.486 h -11.896 l -2.323,-6.328 h -5.287 L -7.29,17.062 h 6.168 L 9.452,-10.814 H 3.965 Z"
             style="fill:none;stroke:#ffffff;stroke-width:1.185;stroke-linecap:round;stroke-linejoin:round;stroke-miterlimit:10;stroke-dasharray:none;stroke-opacity:1"
             id="path873" /></g><g
           id="g875"
           transform="translate(141.6191,43.3325)"><path
             d="m 0,0 v -27.876 h -5.287 l -13.217,18.423 v -18.423 h -5.287 V 0 h 5.287 L -5.287,-18.384 V 0 Z"
             style="fill:#ffffff;fill-opacity:1;fill-rule:nonzero;stroke:none"
             id="path877" /></g><g
           id="g879"
           transform="translate(141.6191,43.3325)"><path
             d="m 0,0 v -27.876 h -5.287 l -13.217,18.423 v -18.423 h -5.287 V 0 h 5.287 L -5.287,-18.384 V 0 Z"
             style="fill:none;stroke:#ffffff;stroke-width:1.185;stroke-linecap:round;stroke-linejoin:round;stroke-miterlimit:10;stroke-dasharray:none;stroke-opacity:1"
             id="path881" /></g><g
           id="g883"
           transform="translate(155.5176,38.4863)"><path
             d="M 0,0 H -7.931 V 4.846 H 13.217 V 0 H 5.287 V -23.03 H 0 Z"
             style="fill:#ffffff;fill-opacity:1;fill-rule:nonzero;stroke:none"
             id="path885" /></g><g
           id="g887"
           transform="translate(155.5176,38.4863)"><path
             d="M 0,0 H -7.931 V 4.846 H 13.217 V 0 H 5.287 V -23.03 H 0 Z"
             style="fill:none;stroke:#ffffff;stroke-width:1.185;stroke-linecap:round;stroke-linejoin:round;stroke-miterlimit:10;stroke-dasharray:none;stroke-opacity:1"
             id="path889" /></g><g
           id="g891"
           transform="translate(188,26.2705)"><path
             d="M 0,0 -4.286,11.855 -8.611,0 Z m 1.642,-4.486 h -11.896 l -2.323,-6.328 h -5.286 l 10.574,27.876 h 6.167 L 9.453,-10.814 H 3.965 Z"
             style="fill:#ffffff;fill-opacity:1;fill-rule:nonzero;stroke:none"
             id="path893" /></g><g
           id="g895"
           transform="translate(188,26.2705)"><path
             d="M 0,0 -4.286,11.855 -8.611,0 Z m 1.642,-4.486 h -11.896 l -2.323,-6.328 h -5.286 l 10.574,27.876 h 6.167 L 9.453,-10.814 H 3.965 Z"
             style="fill:none;stroke:#ffffff;stroke-width:1.185;stroke-linecap:round;stroke-linejoin:round;stroke-miterlimit:10;stroke-dasharray:none;stroke-opacity:1"
             id="path897" /></g><g
           id="g899"
           transform="translate(207.625,30.7163)"><path
             d="M 0,0 H 4.807 C 6.568,0 7.871,0.306 8.712,0.921 9.553,1.535 9.973,2.576 9.973,4.045 9.973,5.46 9.559,6.461 8.731,7.049 7.903,7.636 6.582,7.93 4.767,7.93 H 0 Z M 10.654,-15.26 4.967,-4.646 H 0 V -15.26 H -5.287 V 12.616 H 4.767 c 3.604,0 6.301,-0.721 8.09,-2.162 1.789,-1.442 2.684,-3.539 2.684,-6.289 0,-1.949 -0.44,-3.604 -1.322,-4.966 -0.881,-1.362 -2.19,-2.377 -3.925,-3.044 l 6.168,-11.415 z"
             style="fill:#ffffff;fill-opacity:1;fill-rule:nonzero;stroke:none"
             id="path901" /></g><g
           id="g903"
           transform="translate(207.625,30.7163)"><path
             d="M 0,0 H 4.807 C 6.568,0 7.871,0.306 8.712,0.921 9.553,1.535 9.973,2.576 9.973,4.045 9.973,5.46 9.559,6.461 8.731,7.049 7.903,7.636 6.582,7.93 4.767,7.93 H 0 Z M 10.654,-15.26 4.967,-4.646 H 0 V -15.26 H -5.287 V 12.616 H 4.767 c 3.604,0 6.301,-0.721 8.09,-2.162 1.789,-1.442 2.684,-3.539 2.684,-6.289 0,-1.949 -0.44,-3.604 -1.322,-4.966 -0.881,-1.362 -2.19,-2.377 -3.925,-3.044 l 6.168,-11.415 z"
             style="fill:none;stroke:#ffffff;stroke-width:1.185;stroke-linecap:round;stroke-linejoin:round;stroke-miterlimit:10;stroke-dasharray:none;stroke-opacity:1"
             id="path905" /></g><g
           id="g907"
           transform="translate(235.2617,38.6865)"><path
             d="m 0,0 v -6.969 h 12.016 v -4.365 H 0 v -7.25 H 12.896 V -23.23 H -5.287 V 4.646 H 12.896 V 0 Z"
             style="fill:#ffffff;fill-opacity:1;fill-rule:nonzero;stroke:none"
             id="path909" /></g><g
           id="g911"
           transform="translate(235.2617,38.6865)"><path
             d="m 0,0 v -6.969 h 12.016 v -4.365 H 0 v -7.25 H 12.896 V -23.23 H -5.287 V 4.646 H 12.896 V 0 Z"
             style="fill:none;stroke:#ffffff;stroke-width:1.185;stroke-linecap:round;stroke-linejoin:round;stroke-miterlimit:10;stroke-dasharray:none;stroke-opacity:1"
             id="path913" /></g><g
           id="g915"
           transform="translate(259.0928,15.5762)"><path
             d="m 0,0 c -1.682,0.4 -3.271,0.947 -4.767,1.642 v 5.127 c 3.472,-1.87 6.57,-2.804 9.293,-2.804 1.362,0 2.463,0.294 3.305,0.881 0.841,0.588 1.262,1.415 1.262,2.484 0,0.747 -0.235,1.381 -0.701,1.902 -0.468,0.521 -1.049,0.948 -1.744,1.282 -0.693,0.334 -1.681,0.741 -2.962,1.221 -1.738,0.641 -3.152,1.255 -4.247,1.843 -1.094,0.587 -2.029,1.422 -2.803,2.503 -0.776,1.082 -1.161,2.477 -1.161,4.186 0,2.509 0.867,4.465 2.603,5.867 1.735,1.402 4.111,2.103 7.129,2.103 1.415,0 2.804,-0.154 4.165,-0.461 1.362,-0.307 2.617,-0.754 3.766,-1.341 v -5.007 c -2.698,1.495 -5.301,2.243 -7.811,2.243 -1.389,0 -2.476,-0.247 -3.264,-0.741 -0.788,-0.494 -1.181,-1.195 -1.181,-2.102 0,-0.909 0.406,-1.622 1.222,-2.143 0.813,-0.521 2.075,-1.089 3.784,-1.703 1.789,-0.668 3.258,-1.309 4.406,-1.922 1.147,-0.615 2.143,-1.502 2.984,-2.664 0.841,-1.161 1.288,-2.663 1.341,-4.506 0,-2.643 -0.894,-4.72 -2.683,-6.227 C 10.146,0.153 7.757,-0.601 4.767,-0.601 3.271,-0.601 1.683,-0.4 0,0"
             style="fill:#ffffff;fill-opacity:1;fill-rule:nonzero;stroke:none"
             id="path917" /></g><g
           id="g919"
           transform="translate(259.0928,15.5762)"><path
             d="m 0,0 c -1.682,0.4 -3.271,0.947 -4.767,1.642 v 5.127 c 3.472,-1.87 6.57,-2.804 9.293,-2.804 1.362,0 2.463,0.294 3.305,0.881 0.841,0.588 1.262,1.415 1.262,2.484 0,0.747 -0.235,1.381 -0.701,1.902 -0.468,0.521 -1.049,0.948 -1.744,1.282 -0.693,0.334 -1.681,0.741 -2.962,1.221 -1.738,0.641 -3.152,1.255 -4.247,1.843 -1.094,0.587 -2.029,1.422 -2.803,2.503 -0.776,1.082 -1.161,2.477 -1.161,4.186 0,2.509 0.867,4.465 2.603,5.867 1.735,1.402 4.111,2.103 7.129,2.103 1.415,0 2.804,-0.154 4.165,-0.461 1.362,-0.307 2.617,-0.754 3.766,-1.341 v -5.007 c -2.698,1.495 -5.301,2.243 -7.811,2.243 -1.389,0 -2.476,-0.247 -3.264,-0.741 -0.788,-0.494 -1.181,-1.195 -1.181,-2.102 0,-0.909 0.406,-1.622 1.222,-2.143 0.813,-0.521 2.075,-1.089 3.784,-1.703 1.789,-0.668 3.258,-1.309 4.406,-1.922 1.147,-0.615 2.143,-1.502 2.984,-2.664 0.841,-1.161 1.288,-2.663 1.341,-4.506 0,-2.643 -0.894,-4.72 -2.683,-6.227 C 10.146,0.153 7.757,-0.601 4.767,-0.601 3.271,-0.601 1.683,-0.4 0,0 Z"
             style="fill:none;stroke:#ffffff;stroke-width:1.185;stroke-linecap:round;stroke-linejoin:round;stroke-miterlimit:10;stroke-dasharray:none;stroke-opacity:1"
             id="path921" /></g></g></g></g></svg>
