<?xml version="1.0" encoding="UTF-8"?>
<svg width="1034.1" height="273.57" version="1.1" viewBox="0 0 1034.1 273.57" xml:space="preserve" xmlns="http://www.w3.org/2000/svg"><defs><clipPath id="clipPath1188"><path d="m0 1e3h1e3v-1e3h-1e3z"/></clipPath></defs><g transform="matrix(1.3333 0 0 -1.3333 -156.3 803.45)"><g transform="translate(378.34 501.91)"><path d="m0 0-12.952 35.829-13.071-35.829zm4.962-13.558h-35.95l-7.021-19.124h-15.978l31.957 84.246h18.639l31.956-84.246h-16.583z" fill="#fff"/></g><g transform="translate(493.57 553.48)"><path d="m0 0v-84.246h-15.978l-39.942 55.679v-55.679h-15.978v84.246h15.978l39.942-55.558v55.558z" fill="#fff"/></g><g transform="translate(535.58 538.83)"><path d="m0 0h-23.968v14.646h63.91v-14.646h-23.964v-69.6h-15.978z" fill="#fff"/></g><g transform="translate(633.74 501.91)"><path d="m0 0-12.953 35.829-13.071-35.829zm4.961-13.558h-35.949l-7.022-19.124h-15.974l31.956 84.246h18.637l31.959-84.246h-16.586z" fill="#fff"/></g><g clip-path="url(#clipPath1188)"><g transform="translate(693.05 515.35)"><path d="m0 0h14.526c5.325 0 9.261 0.925 11.802 2.783 2.541 1.855 3.811 5.002 3.811 9.443 0 4.274-1.252 7.301-3.751 9.078-2.503 1.774-6.496 2.662-11.983 2.662h-14.405zm32.198-46.118-17.187 32.077h-15.011v-32.077h-15.978v84.245h30.383c10.894 0 19.044-2.179 24.451-6.535 5.407-4.358 8.111-10.694 8.111-19.005 0-5.891-1.331-10.893-3.996-15.008-2.662-4.116-6.617-7.183-11.862-9.2l18.641-34.497z" fill="#fff"/></g><g transform="translate(776.57 539.43)"><path d="m0 0v-21.062h36.312v-13.191h-36.312v-21.911h38.974v-14.041h-54.953v84.246h54.953v-14.041z" fill="#fff"/></g><g transform="translate(848.59 469.59)"><path d="m0 0c-5.082 1.21-9.884 2.862-14.405 4.962v15.495c10.491-5.651 19.853-8.474 28.084-8.474 4.114 0 7.443 0.887 9.987 2.663 2.541 1.775 3.813 4.276 3.813 7.504 0 2.258-0.708 4.177-2.119 5.749-1.414 1.575-3.17 2.865-5.268 3.874-2.095 1.009-5.082 2.24-8.954 3.692-5.25 1.937-9.524 3.792-12.832 5.568-3.309 1.775-6.133 4.297-8.473 7.565-2.344 3.269-3.51 7.485-3.51 12.651 0 7.584 2.621 13.495 7.868 17.731 5.246 4.237 12.425 6.356 21.545 6.356 4.277 0 8.473-0.465 12.587-1.393 4.117-0.928 7.909-2.28 11.38-4.055v-15.13c-8.151 4.518-16.019 6.778-23.604 6.778-4.197 0-7.485-0.747-9.864-2.239-2.381-1.493-3.57-3.612-3.57-6.354 0-2.745 1.228-4.902 3.691-6.477 2.459-1.573 6.272-3.289 11.437-5.144 5.407-2.018 9.846-3.956 13.316-5.809 3.468-1.858 6.475-4.541 9.019-8.05 2.541-3.51 3.893-8.049 4.053-13.619 0-7.987-2.704-14.263-8.111-18.82-5.407-4.561-12.629-6.841-21.665-6.841-4.521 0-9.32 0.607-14.405 1.817" fill="#fff"/></g><g transform="translate(187.89 598.28)"><path d="m0 0c-0.49 0.66-0.97 1.33-1.42 2.01 6.5 1.51 13.271 2.3 20.22 2.3 24.68 0 47.03-9.99 63.21-26.16-6.88-3-14.72-4.77-23.15-5.06-1.11 3.03-4.03 5.2-7.44 5.2-3.05 0-5.7-1.72-7.02-4.25-2.18 0.35-4.35 0.81-6.51 1.37-15.7 4.05-29.15 12.78-37.89 24.59" fill="#f9f7fc"/></g><g transform="translate(290.03 545.73)"><path d="m0 0c-10.489-7.98-26.22-12.61-44.789-12.61-9.711 0-19.671 1.3-29.591 3.85-12.58 3.25-24.18 8.28-34.029 14.67 0.319 0.97 0.489 2 0.489 3.08 0 5.47-4.439 9.91-9.909 9.91-1.851 0-3.57-0.5-5.051-1.38-0.55 0.54-1.08 1.09-1.599 1.65-6.041 6.44-10.21 13.2-12.38 19.93 8.2 6.12 17.469 10.87 27.5 13.91 0.82-1.3 1.7-2.59 2.639-3.86 9.51-12.85 24.09-22.34 41.04-26.71 2.42-0.62 4.851-1.13 7.29-1.53 0.89-3.41 3.991-5.92 7.67-5.92 3.321 0 6.17 2.05 7.34 4.95 10.03 0.31 19.32 2.56 27.36 6.37 6.76-7.71 12.22-16.6 16.02-26.31" fill="#f9f7fc"/></g><g transform="translate(296.12 515.07)"><path d="m0 0c0 0.3 0 0.6-0.021 0.9-9e-3 0.59-0.04 1.18-0.07 1.76-0.029 0.67-0.069 1.33-0.119 1.98-0.07 1.01-0.16 2.01-0.27 3.01-0.06 0.6-0.13 1.2-0.21 1.8-0.09 0.75-0.201 1.49-0.31 2.23-0.11 0.74-0.23 1.47-0.37 2.21-0.13 0.74-0.271 1.47-0.42 2.2-0.15 0.73-0.301 1.45-0.471 2.17s-0.34 1.44-0.529 2.16c-0.13 0.53-0.28 1.06-0.431 1.59-0.099 0.38-0.21 0.76-0.319 1.14-0.19 0.65-0.38 1.29-0.58 1.92-11.46-8.07-27.771-12.72-46.76-12.72-10.19 0-20.631 1.36-31.02 4.04-13.23 3.4-25.451 8.72-35.861 15.5-1.689-1.35-3.83-2.15-6.159-2.15-5.48 0-9.91 4.43-9.91 9.91 0 1.55 0.359 3.02 1 4.33-0.65 0.65-1.28 1.3-1.9 1.96-6.031 6.43-10.371 13.2-12.93 20.03v0.01c-0.111-0.09-0.22-0.19-0.32-0.28-0.27-0.23-0.531-0.46-0.791-0.7-0.37-0.31-0.719-0.64-1.08-0.97-0.319-0.28-0.639-0.58-0.95-0.88-0.529-0.5-1.059-1-1.569-1.52-0.021-0.02-0.03-0.03-0.05-0.05-0.671-0.66-1.33-1.34-1.98-2.02-0.75-0.8-1.491-1.61-2.22-2.44-0.521-0.59-1.03-1.18-1.54-1.79-0.01-0.02-0.03-0.04-0.04-0.06-0.611-0.72-1.2-1.45-1.771-2.19-0.59-0.74-1.159-1.5-1.719-2.27s-1.111-1.54-1.651-2.33c-0.609-0.9-1.21-1.82-1.789-2.74-0.41-0.64-0.801-1.28-1.19-1.93-0.031-0.05-0.06-0.1-0.09-0.15 1.83-10.31 7.01-20.69 15.309-30.39 13.871-16.21 34.75-28.56 58.781-34.75 9-2.32 18.08-3.68 27.04-4.05 1.55 4.68 5.979 8.06 11.179 8.06 4.771 0 8.88-2.84 10.731-6.93 17.92 2.7 33.09 9.73 43.359 19.82 0.011 0.2 0.011 0.39 0.011 0.59 0.02 0.68 0.029 1.37 0.029 2.05 0 0.65-9e-3 1.3-0.029 1.94m-42.36-30.01c-0.39-6.14-5.51-11-11.741-11-5.819 0-10.67 4.23-11.609 9.79-9.311 0.4-18.71 1.82-28.03 4.22-25.16 6.49-47.071 19.47-61.691 36.57-7.229 8.45-12.279 17.41-15.009 26.48-5.42-11.54-8.451-24.41-8.451-37.99 0-49.41 40.05-89.46 89.46-89.46 45.75 0 83.5 34.36 88.811 78.69z" fill="#f9f7fc"/></g><g transform="translate(148.14 580.77)"><path d="m0 0c0.11 0.1 0.21 0.19 0.32 0.27v0.01c-0.11-0.09-0.219-0.19-0.32-0.28 0.11 0.1 0.21 0.19 0.32 0.27v0.01c-0.11-0.09-0.219-0.19-0.32-0.28" fill="#fff"/></g><g transform="translate(845.92 430.03)"><path d="m0 0 0.316 0.061c3.918 0.781 7.505 1.146 11.388 0.045 1.683-0.477 3.025-1.179 4.404-1.98 0.83-0.482 0.968-0.557 1.776-1.276 6.146-5.483 7.451-11.267 4.178-20.258 0.42-0.361-0.147-0.107 0.596-0.288 0.292-0.072 0.678-0.086 0.988-0.092 0.46-9e-3 1.062 0.012 1.516 0.014 3.22-0.179 5.054-0.359 8.245 0.332 9.009 1.951 6.403 6.182 1.091 6.617-2.551 0.21-5.465-0.031-7.244 1.61 0.347 3.389 5.591 6.19 8.908 8.612 1.727 1.263 11.214 7.988 7.202 9.853-3.778 1.756-11.636-5.356-15.96-5.28 0.34 3.736 2.749 6.224 4.401 8.717 1.103 1.666 4.626 6.124 3.045 8.976-6.278 1.017-12.894-12.542-16.112-11.334-0.822 5.717 1.892 6.552 0.668 15.247-3.919 0.21-5.449-3.647-6.631-6.887-1.1-3.022-2.56-7.467-5.134-8.215-2.302 3.022 0.064 7.014-2.846 10.127-2.05-0.253-1.781-0.66-2.608-2.27-2.17-4.226-2.507-7.424-2.187-12.331" fill="#fff" fill-rule="evenodd"/></g><g transform="translate(871.09 406.26)"><path d="m0 0c-0.454-2e-3 -1.056-0.023-1.517-0.014-0.309 6e-3 -0.695 0.02-0.987 0.092-0.743 0.181-0.176-0.073-0.597 0.288-2.823 0.33-4.903 1.664-7.332 2.007-2.019-1.85-4.232-4.006-8.651-4.276-3.679-0.224-6.985 1.102-9.299 3.713-1.904 2.148-3.245 6.44-2.008 10.17 0.974 2.931 3.463 5.672 6.311 6.49-0.134 1.593-1.158 4.023-0.766 5.364l-0.316-0.06c-0.891-0.705-2.743-1.101-4.851-2.763-8.692-6.851-8.759-22.981 4.52-28.539 5.564-2.327 12.171-1.498 17.014 1.903 2.23 1.565 3.817 3.236 5.138 5.541z" fill="#fff" fill-rule="evenodd"/></g><g transform="translate(847.11 424.95)"><path d="m0 0c1.067-3.786 3.764-8.089 5.886-10.417 0.388-0.425 0.566-0.47 0.932-0.845l1.99-1.843c1.197-0.917 2.84-2.507 4.739-2.667 3.349 3.913 2.35 8.794-0.648 12.627-2.394 3.064-7.609 4.732-12.899 3.145" fill="#fff" fill-rule="evenodd"/></g><g transform="translate(702.99 416.85)"><path d="m0 0c-0.911 0.905-1.628 1.927-3.563 1.964-1.943 0.04-2.926-0.936-3.604-1.877-0.333 0.679-0.445 2.369-2.112 1.609-1.06-0.485-0.807-2.217-0.799-3.48 0.011-1.984-0.261-6.435 0.217-8.096 0.654-0.439 1.285-0.799 2.243-0.054 1.291 1.546-1.599 10.42 3.446 9.317 4.034-0.882-0.124-9.793 3.163-9.797 3.433-5e-3 -0.681 8.634 3.193 9.747 5.317 1.53 2.191-7.529 3.687-9.227 0.436-0.469 1.339-0.972 2.027-0.052 0.637 0.849 0.285 8.358 0.033 9.203-1.033 3.446-5.644 3.554-7.931 0.743" fill="#fff" fill-rule="evenodd"/></g><g transform="translate(751.66 416.87)"><path d="m0 0c-0.739 0.662-1.191 1.302-2.622 1.74-3.13 0.953-6.892-1.299-6.975-5.859-0.052-2.858 1.034-4.804 2.977-5.827 3.167-1.669 4.946-0.124 6.541 1.41 0.165-0.796 0.209-1.158 0.533-1.689l1.896-0.123c0.909 2.01 0.449 11.844 0.449 14.66 0 0.893-0.15 1.303-0.369 1.893-3.343 0.871-2.185-1.6-2.43-6.205m-6.753-5.367c-0.429 2.156 0.412 4.176 2.257 4.741 2.348 0.718 4.147-0.983 4.476-2.729 0.995-5.275-5.83-6.58-6.733-2.012" fill="#fff" fill-rule="evenodd"/></g><g transform="translate(597.65 421.18)"><path d="m0 0 1e-3 -12.735c0-2.011 1.732-3.344 2.913-0.438 0.016 0.04 0.04 0.126 0.075 0.182 3.79-4.237 9.567-1.083 9.416 4.59-0.113 4.256-3.527 6.743-6.884 5.862-1.765-0.464-1.508-1.093-2.781-1.863 0.017 1.012 0.146 4.644-0.038 5.398-0.336 1.392-2.702 2.017-2.702-0.996m5.02-5.044c4.693 1.962 6.131-6.025 2.373-7.275-2.424-0.805-4.09 0.66-4.553 2.501-0.592 2.361 0.366 4.015 2.18 4.774" fill="#fff" fill-rule="evenodd"/></g><g transform="translate(665.14 421.18)"><path d="m0 0c0-2.351-0.401-13.052 0.412-14.52 1.878-0.529 2.279-0.191 2.329 1.786 0.051 2.068 0.63 1.991 1.752 3.018 0.847-0.739 1.724-2.012 2.498-3.061 0.83-1.124 1.057-1.954 2.095-1.963 3.464-0.031-0.75 4.5-1.326 5.261-0.422 0.556-0.824 1.03-1.144 1.583 0.427 0.584 0.607 0.523 1.122 1.085 0.982 1.067 3.757 3.038 1.965 4.164-1.147 0.719-2.563-1.206-3.767-2.358-1.023-0.977-2.233-2.037-3.14-3.023-0.414 4.389 0.848 9.748-1.135 10.1-1.468 0.261-1.661-0.825-1.661-2.072" fill="#fff" fill-rule="evenodd"/></g><g transform="translate(789.09 411.6)"><path d="m0 0c2.3-0.04 6.777-0.383 8.533 0.262 0.987 4.083-2.436 7.754-6.765 6.816-5.95-1.291-6.356-10.832 0.044-12.26 5.66-1.264 7.743 3.708 4.857 3.31-0.784-0.109-1.035-0.87-2.462-1.119-2.478-0.436-3.839 0.887-4.207 2.991m0.058 1.796c0.093 4.164 5.828 4.129 5.93 0.016z" fill="#fff" fill-rule="evenodd"/></g><g transform="translate(682.75 418.73)"><path d="m0 0c-3.352-0.513-5.823-3.167-5.361-7.111 0.388-3.337 3.662-5.98 7.526-5.261 7.999 1.488 6.24 13.653-2.165 12.372m-0.295-2.615c4.526 1.892 6.862-5.573 2.747-7.164-2.418-0.936-4.378 0.507-4.931 2.237-0.769 2.411 0.303 4.142 2.184 4.927" fill="#fff" fill-rule="evenodd"/></g><g transform="translate(762.87 418.78)"><path d="m0 0c-8.307-0.945-7.012-13.748 1.761-12.457 3.265 0.481 5.888 3.411 5.339 7.195-0.456 3.148-3.434 5.679-7.1 5.262m-0.485-2.635c4.812 1.867 6.701-5.855 2.59-7.269-4.879-1.679-6.986 5.562-2.59 7.269" fill="#fff" fill-rule="evenodd"/></g><g transform="translate(654.59 409.67)"><path d="m0 0c-1.921 0.282-1.839-1.338-4.528-1.121-0.926 0.074-1.487 0.351-2.063 0.934-0.647 0.651-0.799 1.083-0.955 2.069 5.345 0.294 11.009-1.432 8.052 4.254-1.574 3.027-5.964 4.11-8.861 1.516-4.432-3.969-1.249-12.507 5.781-10.901 1.894 0.433 3.647 1.546 2.574 3.249m-7.517 3.742c0.126 4.12 6.139 4.134 5.93-3e-3l-0.95-4e-3 -4.075-2e-3z" fill="#fff" fill-rule="evenodd"/></g><g transform="translate(818.89 417.64)"><path d="m0 0c-0.833-4.706 6.512 2.147 7.103-4.128-3.718 0.454-8.47 0.85-8.189-3.782 0.16-2.645 3.68-5.27 8.007-1.891 0.387-0.762 0.487-1.544 1.681-1.384 1.086 0.145 1.131 1.174 1.14 2.236 0.039 4.456 0.871 9.15-3.924 9.946-1.977 0.329-4.546-0.122-5.818-0.997m7.092-5.92c0.235-3.457-3.623-4.325-5.046-2.733-1.114 1.245-0.094 2.569 0.851 2.929 1.375 0.523 2.986 0.112 4.195-0.196" fill="#fff" fill-rule="evenodd"/></g><g transform="translate(731.48 416.92)"><path d="m0 0c-0.476 0.806-0.027 0.653-0.897 1.694-1.771 0.174-1.994-0.36-2.013-2.003-0.017-1.436 0.014-2.903 0.014-4.345 0-1.625-0.645-7.487 2.186-5.643 1.144 0.745 0.165 6.067 0.691 7.769 0.704 2.28 3.957 2.707 4.851 0.4 0.662-1.709-0.231-6.873 0.533-7.898 0.645-0.865 2.157-0.579 2.419 0.627 0.164 0.751 0.047 3.3 0.047 4.236 3e-3 2.813 0.225 5.308-1.869 6.446-2.459 1.336-5.057 0.334-5.962-1.283" fill="#fff" fill-rule="evenodd"/></g><g transform="translate(775.81 416.89)"><path d="m0 0-0.543 1.62c-3.175 0.709-2.401-1.924-2.4-4.708 0-2.246-0.366-5.433 0.398-7.134 2.998-0.879 2.339 1.488 2.333 4.078-5e-3 2.353-0.309 4.533 1.541 5.307 5.132 2.145 3.309-6.048 3.906-9.3 2.661-0.935 2.594 0.475 2.579 2.968-8e-3 1.61 0.172 4.634-0.191 6.055-1.086 4.245-6.51 3.533-7.623 1.114" fill="#fff" fill-rule="evenodd"/></g><g transform="translate(622.64 418.54)"><path d="m0 0c-2.042 0.577-2.379-1.886-3.007-3.657-0.468-1.325-1.324-4.001-1.96-4.945-1.695 2.315-2.637 7.9-3.992 8.577-1.25 0.628-2.201-0.509-1.721-1.979l2.583-5.863c0.744-1.63 2.792-4.596 0.681-5.367-1.258-0.457-2.54 0.72-3.097-0.539-0.618-1.402 1.055-1.891 2.233-1.958 3.056-0.175 3.651 1.588 4.647 3.813l3.632 8.843c0.51 1.216 1.151 1.929 1e-3 3.075" fill="#fff" fill-rule="evenodd"/></g><g transform="translate(636.96 419.85)"><path d="m0 0c0.129-3.952-0.358-9.487 0.204-13.089 1.051-0.375 1.49-0.356 2.427 0.117 0.629 2.228 0.109 10.018 0.253 13.01 1.039-5e-3 3.631-0.225 4.423 0.17 1.15 0.573 1.059 2.435-1.125 2.435h-9.425c-1.877 0-2.569-1.506-1.314-2.363 0.809-0.551 3.411-0.215 4.557-0.28" fill="#fff" fill-rule="evenodd"/></g><g transform="translate(799.88 409.63)"><path d="m0 0c-0.429-2.277 1.597-2.913 3.726-3.247 5.837-0.914 7.531 4.659 3.52 6.625-2.679 1.314-4.242 0.702-4.255 2.922 1.554 1.086 2.331 0.686 3.941 0.029 2.063-0.844 3.004 0.915 1.359 1.916-2.735 1.662-7.16 1.08-7.774-1.916-0.902-4.405 3.568-3.807 5.574-5.142 1.85-1.233-0.075-2.479-1.799-2.258-2.088 0.27-2.293 1.443-4.292 1.071" fill="#fff" fill-rule="evenodd"/></g><g transform="translate(722.26 406.8)"><path d="m0 0c0.972-0.64 1.243-0.374 2.16 0.056 0.423 1.696 0.189 6.429 0.189 8.474 0 1.788 0.884 7.365-1.46 7.261-2.223-0.098-1.362-5.426-1.362-7.261 0-2.498-0.442-7.363 0.473-8.53" fill="#fff" fill-rule="evenodd"/></g><g transform="translate(658.79 421.44)"><path d="m0 0v-12.99c0-2.86 2.778-2.756 2.778 0v12.99c0 2.403-2.778 2.693-2.778 0" fill="#fff" fill-rule="evenodd"/></g><g transform="translate(812.93 418.54)"><path d="m0 0c-1.173-0.705-0.693-5.342-0.693-6.78 0-1.686-0.678-6.718 2.082-5.127 1.217 0.701 0.639 4.921 0.639 6.654 0 1.559 0.558 6.804-2.028 5.253" fill="#fff" fill-rule="evenodd"/></g></g></g></svg>
