<svg xmlns="http://www.w3.org/2000/svg" xmlns:xlink="http://www.w3.org/1999/xlink" width="1034.835" height="273.57" viewBox="0 0 273.8 72.382" xmlns:v="https://vecta.io/nano"><style><![CDATA[.B{fill:#414042}.C{fill:none}.D{stroke:#414042}.E{stroke-linejoin:round}.F{stroke-miterlimit:10}.G{stroke-width:1.185}]]></style><defs><clipPath id="A"><path d="M117.23 513.13c0-49.408 40.05-89.459 89.459-89.459s89.458 40.051 89.458 89.459-40.051 89.459-89.458 89.459-89.459-40.052-89.459-89.459"/></clipPath><linearGradient id="B" x2="1" gradientTransform="matrix(-61.547 -137.22 -137.22 61.547 241.22 590.12)" gradientUnits="userSpaceOnUse"><stop stop-color="#f2b81a" offset="0"/><stop stop-color="#e78c00" offset=".292"/><stop stop-color="#be1e2d" offset=".959"/></linearGradient><clipPath id="C"><path d="M0 1000h1000V0H0z"/></clipPath><path id="D" d="M378.34 501.91l-12.953 35.829-13.071-35.829zm4.961-13.558h-35.949l-7.021-19.124h-15.978l31.956 84.246h18.64l31.956-84.246h-16.583z"/><path id="E" d="M493.57 553.48v-84.246h-15.978l-39.942 55.679v-55.679h-15.979v84.246h15.979l39.942-55.558v55.558z"/><path id="F" d="M633.74 501.91l-12.953 35.829-13.071-35.829zm4.961-13.558h-35.949l-7.021-19.124h-15.975l31.956 84.246h18.637l31.959-84.246h-16.586z"/><path id="G" d="M693.05 515.35h14.526c5.325 0 9.262.925 11.803 2.783s3.81 5.002 3.81 9.443c0 4.274-1.251 7.301-3.751 9.078s-6.496 2.662-11.983 2.662H693.05zm32.199-46.118l-17.188 32.077H693.05v-32.077h-15.978v84.245h30.383c10.894 0 19.045-2.179 24.451-6.535s8.111-10.694 8.111-19.005c0-5.891-1.331-10.893-3.996-15.008s-6.617-7.183-11.862-9.2l18.641-34.497z"/><path id="H" d="M776.57 539.43v-21.062h36.313v-13.191H776.57v-21.911h38.975v-14.041h-54.954v84.246h54.954V539.43z"/></defs><g transform="matrix(.35278 0 0 -.35278 -41.356 212.581)"><g clip-path="url(#A)"><path d="M117.23 513.13c0-49.408 40.05-89.459 89.459-89.459s89.458 40.051 89.458 89.459-40.051 89.459-89.458 89.459-89.459-40.052-89.459-89.459" fill="url(#B)"/><g fill="#fff"><path d="M210.17 634.39c-30.212 0-52.89-12.257-57.777-31.222-3.161-12.254 1.511-25.841 13.154-38.26 11.967-12.767 29.757-22.686 50.098-27.931 9.921-2.556 19.879-3.854 29.589-3.854 30.209 0 52.887 12.254 57.774 31.219 6.652 25.794-21.724 55.486-63.249 66.191-9.925 2.558-19.88 3.857-29.589 3.857m35.064-106.97c-10.188 0-20.624 1.358-31.015 4.037-21.37 5.508-40.129 16.002-52.831 29.552-13.024 13.891-18.179 29.37-14.514 43.578 5.557 21.565 30.404 35.498 63.296 35.498 10.191 0 20.62-1.361 31.012-4.038 44.567-11.492 74.776-44.298 67.345-73.132-5.561-21.562-30.404-35.495-63.293-35.495"/><path d="M182.11 554.72a9.91 9.91 0 0 0-9.911-9.913c-5.474 0-9.913 4.435-9.913 9.913 0 5.472 4.439 9.907 9.913 9.907a9.91 9.91 0 0 0 9.911-9.907m65.13 13.93a7.93 7.93 0 0 0-7.927-7.93 7.93 7.93 0 0 0-7.93 7.93c0 4.374 3.55 7.927 7.93 7.927a7.93 7.93 0 0 0 7.927-7.927m6.55-82.82a11.78 11.78 0 0 0-11.772-11.77c-6.502 0-11.773 5.271-11.773 11.77s5.271 11.77 11.773 11.77a11.78 11.78 0 0 0 11.772-11.77"/><path d="M203.48 621.12c-37.109 0-66.48-17.212-73.085-42.826-4.197-16.285.997-34.028 14.626-49.956 13.874-16.215 34.749-28.556 58.78-34.751 10.711-2.76 21.518-4.159 32.125-4.159 37.109 0 66.48 17.209 73.082 42.823 8.768 34.014-24.162 72.014-73.403 84.708-10.708 2.759-21.516 4.161-32.125 4.161m32.446-137.39c-11.088 0-22.373 1.461-33.547 4.342-25.151 6.484-47.061 19.469-61.688 36.563-14.874 17.38-20.49 36.944-15.813 55.083 7.264 28.173 38.851 47.099 78.602 47.099 11.091 0 22.376-1.461 33.547-4.339 52.285-13.478 87.05-54.592 77.5-91.648-7.263-28.17-38.853-47.1-78.601-47.1"/><path d="M231.47 669.61c-25.833 0-46.722-13.706-51.981-34.104-3.193-12.384-.212-25.606 8.399-37.234 8.742-11.808 22.197-20.538 37.889-24.584 6.091-1.57 12.295-2.367 18.422-2.367 25.832 0 46.718 13.706 51.978 34.105 6.649 25.791-14.113 53.524-46.283 61.817-6.096 1.57-12.294 2.367-18.424 2.367m12.729-103.99c-6.608 0-13.287.859-19.845 2.547-16.952 4.371-31.531 13.859-41.046 26.712-9.651 13.036-12.968 27.966-9.338 42.047 5.92 22.957 29.029 38.381 57.5 38.381 6.608 0 13.287-.859 19.847-2.55 35.209-9.075 57.81-39.919 50.379-68.755-5.921-22.958-29.023-38.382-57.497-38.382"/></g></g><use xlink:href="#D" class="B"/><use xlink:href="#D" class="C D E F G"/><use xlink:href="#E" class="B"/><use xlink:href="#E" class="C D E F G"/><path d="M535.58 538.83h-23.967v14.646h63.909V538.83h-23.964v-69.6H535.58z" class="B"/><path d="M535.58 538.83h-23.967v14.646h63.909V538.83h-23.964v-69.6H535.58z" class="C D E F G"/><use xlink:href="#F" class="B"/><use xlink:href="#F" class="C D E F G"/><g clip-path="url(#C)"><use xlink:href="#G" class="B"/><use xlink:href="#G" class="C D E F G"/><use xlink:href="#H" class="B"/><use xlink:href="#H" class="C D E F G"/><path d="M848.59 469.59c-5.082 1.21-9.884 2.862-14.405 4.962v15.495c10.492-5.651 19.853-8.474 28.085-8.474 4.113 0 7.442.887 9.986 2.663s3.813 4.276 3.813 7.504c0 2.258-.708 4.177-2.119 5.749s-3.17 2.865-5.267 3.874-5.083 2.24-8.955 3.692c-5.25 1.937-9.524 3.792-12.832 5.568s-6.133 4.297-8.473 7.565-3.51 7.485-3.51 12.651c0 7.584 2.621 13.495 7.869 17.731s12.425 6.356 21.544 6.356c4.277 0 8.473-.465 12.587-1.393s7.909-2.28 11.38-4.055v-15.13c-8.151 4.518-16.019 6.778-23.603 6.778-4.198 0-7.486-.747-9.864-2.239s-3.571-3.612-3.571-6.354 1.228-4.902 3.691-6.477 6.272-3.289 11.437-5.144c5.407-2.018 9.846-3.956 13.316-5.809s6.476-4.541 9.02-8.05 3.892-8.049 4.052-13.619c0-7.987-2.704-14.263-8.111-18.82s-12.628-6.841-21.665-6.841c-4.521 0-9.32.607-14.405 1.817" class="B"/><path d="M848.59 469.59c-5.082 1.21-9.884 2.862-14.405 4.962v15.495c10.492-5.651 19.853-8.474 28.085-8.474 4.113 0 7.442.887 9.986 2.663s3.813 4.276 3.813 7.504c0 2.258-.708 4.177-2.119 5.749s-3.17 2.865-5.267 3.874-5.083 2.24-8.955 3.692c-5.25 1.937-9.524 3.792-12.832 5.568s-6.133 4.297-8.473 7.565-3.51 7.485-3.51 12.651c0 7.584 2.621 13.495 7.869 17.731s12.425 6.356 21.544 6.356c4.277 0 8.473-.465 12.587-1.393s7.909-2.28 11.38-4.055v-15.13c-8.151 4.518-16.019 6.778-23.603 6.778-4.198 0-7.486-.747-9.864-2.239s-3.571-3.612-3.571-6.354 1.228-4.902 3.691-6.477 6.272-3.289 11.437-5.144c5.407-2.018 9.846-3.956 13.316-5.809s6.476-4.541 9.02-8.05 3.892-8.049 4.052-13.619c0-7.987-2.704-14.263-8.111-18.82s-12.628-6.841-21.665-6.841c-4.521 0-9.32.607-14.405 1.817z" class="C D E F G"/><g fill-rule="evenodd"><path d="M845.92 430.03l.316.061c3.918.781 7.505 1.146 11.388.045 1.683-.477 3.025-1.179 4.404-1.98.83-.482.969-.557 1.776-1.276 6.146-5.483 7.452-11.267 4.178-20.258.421-.361-.146-.107.596-.288.292-.072.678-.086.988-.092.46-.009 1.062.012 1.516.014 3.22-.179 5.054-.359 8.246.332 9.008 1.951 6.402 6.182 1.09 6.617-2.551.21-5.465-.031-7.244 1.61.348 3.389 5.591 6.19 8.908 8.612 1.727 1.263 11.214 7.988 7.203 9.853-3.779 1.756-11.637-5.356-15.96-5.28.339 3.736 2.749 6.224 4.4 8.717 1.103 1.666 4.626 6.124 3.045 8.976-6.277 1.017-12.893-12.542-16.112-11.334-.822 5.717 1.892 6.552.668 15.247-3.919.21-5.449-3.647-6.631-6.887-1.1-3.022-2.56-7.467-5.134-8.215-2.302 3.022.065 7.014-2.845 10.127-2.05-.253-1.781-.66-2.608-2.27-2.171-4.226-2.507-7.424-2.188-12.331" fill="#e63227"/><path d="M871.08 406.26l-1.517-.014c-.309.006-.695.02-.987.092-.742.181-.175-.073-.597.288-2.823.33-4.903 1.664-7.332 2.007-2.018-1.85-4.232-4.006-8.651-4.276-3.678-.224-6.985 1.102-9.299 3.713-1.904 2.148-3.245 6.44-2.008 10.17.974 2.931 3.463 5.672 6.312 6.49-.135 1.593-1.159 4.023-.767 5.364l-.316-.06c-.891-.705-2.743-1.101-4.851-2.763-8.692-6.851-8.758-22.981 4.52-28.539 5.564-2.327 12.171-1.498 17.014 1.903 2.23 1.565 3.817 3.236 5.138 5.541z" fill="#747474"/><path d="M847.11 424.95c1.067-3.786 3.764-8.089 5.886-10.417.388-.425.566-.47.932-.845l1.99-1.843c1.197-.917 2.841-2.507 4.739-2.667 3.349 3.913 2.35 8.794-.647 12.627-2.395 3.064-7.61 4.732-12.9 3.145" fill="#e63227"/><g fill="#1a1a1a"><path d="M702.99 416.85c-.911.905-1.628 1.927-3.563 1.964-1.943.04-2.925-.936-3.604-1.877-.333.679-.445 2.369-2.112 1.609-1.06-.485-.807-2.217-.799-3.48.012-1.984-.261-6.435.217-8.096.654-.439 1.285-.799 2.243-.054 1.291 1.546-1.599 10.42 3.446 9.317 4.034-.882-.124-9.793 3.163-9.797 3.433-.005-.681 8.634 3.193 9.747 5.317 1.53 2.191-7.529 3.687-9.227.436-.469 1.34-.972 2.027-.052.637.849.285 8.358.033 9.203-1.033 3.446-5.644 3.554-7.931.743m48.67.02c-.739.662-1.19 1.302-2.622 1.74-3.13.953-6.892-1.299-6.975-5.859-.051-2.858 1.035-4.804 2.977-5.827 3.167-1.669 4.946-.124 6.541 1.41.165-.796.209-1.158.533-1.689l1.897-.123c.908 2.01.448 11.844.448 14.66 0 .893-.149 1.303-.369 1.893-3.343.871-2.185-1.6-2.43-6.205m-6.753-5.367c-.428 2.156.413 4.176 2.257 4.741 2.348.718 4.147-.983 4.477-2.729.995-5.275-5.831-6.58-6.734-2.012M597.65 421.18v-12.735c0-2.011 1.733-3.344 2.914-.438.016.04.04.126.075.182 3.79-4.237 9.567-1.083 9.416 4.59-.113 4.256-3.527 6.743-6.884 5.862-1.765-.464-1.508-1.093-2.781-1.863.017 1.012.145 4.644-.038 5.398-.336 1.392-2.702 2.017-2.702-.996m5.02-5.044c4.693 1.962 6.131-6.025 2.372-7.275-2.423-.805-4.09.66-4.552 2.501-.592 2.361.366 4.015 2.18 4.774m62.47 5.044c0-2.351-.4-13.052.412-14.52 1.878-.529 2.279-.191 2.329 1.786.051 2.068.63 1.991 1.752 3.018.847-.739 1.724-2.012 2.498-3.061.83-1.124 1.057-1.954 2.095-1.963 3.464-.031-.75 4.5-1.325 5.261-.423.556-.825 1.03-1.145 1.583.427.584.607.523 1.123 1.085.982 1.067 3.756 3.038 1.964 4.164-1.147.719-2.563-1.206-3.767-2.358-1.023-.977-2.233-2.037-3.14-3.023-.413 4.389.848 9.748-1.134 10.1-1.469.261-1.662-.825-1.662-2.072m123.95-9.58c2.3-.04 6.777-.383 8.533.262.988 4.083-2.436 7.754-6.765 6.816-5.95-1.291-6.355-10.832.045-12.26 5.66-1.264 7.742 3.708 4.856 3.31-.784-.109-1.035-.87-2.462-1.119-2.478-.436-3.839.887-4.207 2.991m.058 1.796c.093 4.164 5.828 4.129 5.93.016zM682.75 418.73c-3.352-.513-5.823-3.167-5.361-7.111.389-3.337 3.662-5.98 7.526-5.261 7.999 1.488 6.24 13.653-2.165 12.372m-.295-2.615c4.526 1.892 6.862-5.573 2.747-7.164-2.418-.936-4.378.507-4.931 2.237-.769 2.411.304 4.142 2.184 4.927"/><path d="M762.87 418.78c-8.306-.945-7.012-13.748 1.762-12.457 3.264.481 5.888 3.411 5.338 7.195-.455 3.148-3.434 5.679-7.1 5.262m-.485-2.635c4.812 1.867 6.701-5.855 2.59-7.269-4.878-1.679-6.986 5.562-2.59 7.269M654.59 409.67c-1.921.282-1.839-1.338-4.528-1.121-.926.074-1.487.351-2.063.934-.647.651-.799 1.083-.955 2.069 5.345.294 11.009-1.432 8.052 4.254-1.574 3.027-5.964 4.11-8.861 1.516-4.432-3.969-1.249-12.507 5.782-10.901 1.893.433 3.647 1.546 2.573 3.249m-7.517 3.742c.126 4.12 6.139 4.134 5.93-.003l-.949-.004-4.076-.002z"/><path d="M818.89 417.64c-.833-4.706 6.512 2.147 7.103-4.128-3.717.454-8.47.85-8.188-3.782.16-2.645 3.679-5.27 8.007-1.891.387-.762.486-1.544 1.68-1.384 1.086.145 1.131 1.174 1.141 2.236.038 4.456.87 9.15-3.925 9.946-1.976.329-4.546-.122-5.818-.997m7.092-5.92c.235-3.457-3.623-4.325-5.046-2.733-1.114 1.245-.094 2.569.851 2.929 1.375.523 2.986.112 4.195-.196m-94.502 5.2c-.476.806-.027.653-.897 1.694-1.771.174-1.993-.36-2.012-2.003l.013-4.345c0-1.625-.645-7.487 2.187-5.643 1.143.745.164 6.067.69 7.769.705 2.28 3.957 2.707 4.851.4.662-1.709-.231-6.873.533-7.898.646-.865 2.157-.579 2.42.627.163.751.046 3.3.046 4.236.003 2.813.225 5.308-1.868 6.446-2.459 1.336-5.058.334-5.963-1.283"/><path d="M775.81 416.89l-.543 1.62c-3.175.709-2.401-1.924-2.4-4.708.001-2.246-.365-5.433.398-7.134 2.998-.879 2.339 1.488 2.334 4.078-.006 2.353-.31 4.533 1.54 5.307 5.132 2.145 3.309-6.048 3.906-9.3 2.661-.935 2.594.475 2.579 2.968-.008 1.61.172 4.634-.191 6.055-1.086 4.245-6.51 3.533-7.623 1.114m-153.17 1.65c-2.042.577-2.379-1.886-3.006-3.657-.469-1.325-1.325-4.001-1.961-4.945-1.695 2.315-2.637 7.9-3.992 8.577-1.249.628-2.201-.509-1.721-1.979l2.583-5.863c.744-1.63 2.793-4.596.681-5.367-1.257-.457-2.54.72-3.097-.539-.617-1.402 1.055-1.891 2.233-1.958 3.057-.175 3.651 1.588 4.647 3.813l3.632 8.843c.511 1.216 1.151 1.929.001 3.075m14.32 1.31c.128-3.952-.359-9.487.203-13.089 1.052-.375 1.49-.356 2.428.117.628 2.228.108 10.018.252 13.01 1.04-.005 3.631-.225 4.423.17 1.15.573 1.059 2.435-1.125 2.435h-9.425c-1.877 0-2.568-1.506-1.313-2.363.808-.551 3.411-.215 4.557-.28m162.92-10.22c-.429-2.277 1.597-2.913 3.726-3.247 5.837-.914 7.531 4.659 3.52 6.625-2.679 1.314-4.241.702-4.255 2.922 1.554 1.086 2.332.686 3.941.029 2.063-.844 3.005.915 1.359 1.916-2.735 1.662-7.16 1.08-7.774-1.916-.902-4.405 3.569-3.807 5.574-5.142 1.85-1.233-.075-2.479-1.799-2.258-2.088.27-2.293 1.443-4.292 1.071m-77.62-2.83c.972-.64 1.244-.374 2.16.056.423 1.696.189 6.429.189 8.474 0 1.788.885 7.365-1.459 7.261-2.224-.098-1.362-5.426-1.362-7.261 0-2.498-.442-7.363.472-8.53m-63.47 14.64v-12.99c0-2.86 2.777-2.756 2.777 0v12.99c0 2.403-2.777 2.693-2.777 0m154.14-2.9c-1.173-.705-.692-5.342-.692-6.78 0-1.686-.679-6.718 2.081-5.127 1.217.701.639 4.921.639 6.654 0 1.559.558 6.804-2.028 5.253"/></g></g></g></g></svg>