<?xml version="1.0" encoding="UTF-8"?>
<svg width="87px" height="73px" viewBox="0 0 87 73" version="1.1" xmlns="http://www.w3.org/2000/svg" xmlns:xlink="http://www.w3.org/1999/xlink">
    <!-- Generator: Sketch 46.2 (44496) - http://www.bohemiancoding.com/sketch -->
    <title>maps-and-flags</title>
    <desc>Created with Sketch.</desc>
    <defs>
        <radialGradient cx="87.8939207%" cy="0%" fx="87.8939207%" fy="0%" r="125.993016%" gradientTransform="translate(0.878939,0.000000),scale(1.000000,0.975513),rotate(132.637877),scale(1.000000,0.902295),translate(-0.878939,-0.000000)" id="radialGradient-1">
            <stop stop-color="#FFFFFF" stop-opacity="0" offset="0%"></stop>
            <stop stop-color="#000000" stop-opacity="0.6" offset="100%"></stop>
        </radialGradient>
    </defs>
    <g id="Page-1" stroke="none" stroke-width="1" fill="none" fill-rule="evenodd">
        <g id="maps-and-flags">
            <path d="M40.3450845,21.9929553 C38.3307972,24.0915705 36.6553086,26.3921779 35.3059926,28.81123 C26.1934659,44.4512144 28.1840181,72.6852596 28.1840181,72.6852596 C28.1840181,72.6852596 60.0766926,66.2986887 73.3092916,53.8088866 C74.633355,52.7133534 75.9405288,51.5790238 77.1712662,50.3649415 C88.4267774,39.9282641 89.3060693,26.5510861 79.1371871,18.7712161 C68.966548,10.2992362 51.6005958,10.974578 40.3450845,21.9929553 Z" id="Imported-Layers-2" fill="url(#radialGradient-1)" opacity="0.580389493"></path>
            <path d="M57,28.3513888 C57,51.0534019 31.2371529,72.0785528 31.2371529,72.0785528 C29.7318084,73.3071491 27.2681916,73.3071491 25.7628471,72.0785528 C25.7628471,72.0785528 0,51.0534019 0,28.3513888 C0.00028665039,12.6933089 12.7600988,0 28.5000717,0 C44.2400446,0 57,12.6933089 57,28.3513888 Z" id="Shape" fill="#D96C22" fill-rule="nonzero"></path>
            <g id="Group-2" transform="translate(11.000000, 11.000000)" fill="#FFE1D6">
                <path d="M0,17 C0,26.3902027 7.7989858,34 17.42264,34 L17.42264,34 C26.3340849,34 33.6857326,27.4699324 34.7157874,19.0445946 L34.7157874,19.0445946 C32.6144757,20.7043919 29.8127269,21.8530405 26.5871841,22.335473 L26.5871841,22.335473 C26.5106657,23.5013514 25.5159271,24.4260135 24.3034056,24.4260135 L24.3034056,24.4260135 C23.1732884,24.4260135 22.225638,23.6219595 22.0431712,22.5652027 L22.0431712,22.5652027 C20.2302749,22.4905405 18.3997205,22.2206081 16.5809381,21.7611486 L16.5809381,21.7611486 C11.6837636,20.5320946 7.41639405,18.0625 4.56755697,14.8118243 L4.56755697,14.8118243 C3.16079651,13.2094595 2.17783,11.5094595 1.64220154,9.78648649 L1.64220154,9.78648649 C0.588602702,11.9746622 0,14.4212838 0,17" id="Fill-1"></path>
                <path d="M17.42264,0 C16.0688538,0 14.7503837,0.149324324 13.4907739,0.436486486 L13.4907739,0.436486486 C13.5731783,0.568581081 13.6673547,0.694932432 13.7615312,0.821283784 L13.7615312,0.821283784 C15.462593,3.06689189 18.081875,4.72094595 21.136723,5.49054054 L21.136723,5.49054054 C21.560517,5.59391892 21.9843109,5.68581081 22.4081049,5.75472973 L22.4081049,5.75472973 C22.661204,5.2722973 23.1791744,4.94493243 23.7736631,4.94493243 L23.7736631,4.94493243 C24.4387842,4.94493243 25.0038428,5.3527027 25.2157398,5.93277027 L25.2157398,5.93277027 C26.8579413,5.87533784 28.3883083,5.54222973 29.7303225,4.96790541 L29.7303225,4.96790541 C26.575412,1.89527027 22.225638,0 17.42264,0 Z" id="Fill-3"></path>
                <path d="M12.3488847,0.729391892 C10.3947237,1.30945946 8.59359945,2.21114865 6.99848613,3.37702703 L6.99848613,3.37702703 C7.42228007,4.65202703 8.2345518,5.93851351 9.40587118,7.16182432 L9.40587118,7.16182432 C9.50593364,7.27094595 9.61188213,7.37432432 9.72371664,7.4777027 L9.72371664,7.4777027 C10.012132,7.31114865 10.3476355,7.21351351 10.7007971,7.21351351 L10.7007971,7.21351351 C11.772054,7.21351351 12.631414,8.05777027 12.631414,9.0972973 L12.631414,9.0972973 C12.631414,9.30405405 12.5960978,9.49932432 12.5313515,9.68310811 L12.5313515,9.68310811 C14.4501963,10.8949324 16.7163167,11.8540541 19.164904,12.4685811 L19.164904,12.4685811 C21.0955208,12.9567568 23.0379098,13.2037162 24.9273244,13.2037162 L24.9273244,13.2037162 C28.5472311,13.2037162 31.6079651,12.325 33.6504165,10.8087838 L33.6504165,10.8087838 C32.9146631,8.95945946 31.8492922,7.27094595 30.5308222,5.80641892 L30.5308222,5.80641892 C28.965139,6.53581081 27.1522427,6.96081081 25.1980817,7.01824324 L25.1980817,7.01824324 C24.9744127,7.56959459 24.4211261,7.95439189 23.7736631,7.95439189 L23.7736631,7.95439189 C23.0555678,7.95439189 22.4551931,7.4777027 22.2844983,6.82871622 L22.2844983,6.82871622 C21.8077301,6.7597973 21.3309619,6.66216216 20.8600798,6.54155405 L20.8600798,6.54155405 C17.5580186,5.70878378 14.7209536,3.90540541 12.8668551,1.46452703 L12.8668551,1.46452703 C12.6843882,1.22331081 12.5078074,0.976351351 12.3547707,0.729391892 L12.3547707,0.729391892 L12.3488847,0.729391892 Z" id="Fill-3"></path>
                <path d="M2.43092916,8.33344595 C2.78409078,10.2918919 3.7906014,12.2675676 5.40925883,14.1111486 L5.40925883,14.1111486 C8.11094524,17.189527 12.1781899,19.5385135 16.8575814,20.7158784 L16.8575814,20.7158784 C18.6116174,21.1581081 20.3833116,21.4108108 22.1314616,21.4797297 L22.1314616,21.4797297 C22.431649,20.589527 23.2910089,19.952027 24.3034056,19.952027 L24.3034056,19.952027 C25.2333978,19.952027 26.0338975,20.4918919 26.3870591,21.2672297 L26.3870591,21.2672297 C29.8774732,20.7560811 32.8322587,19.4236486 34.8335079,17.5054054 L34.8335079,17.5054054 C34.84528,17.3388514 34.84528,17.1722973 34.84528,17 L34.84528,17 C34.84528,15.2081081 34.5627507,13.4851351 34.0330082,11.8655405 L34.0330082,11.8655405 C31.802204,13.3989865 28.6237494,14.2834459 24.9273244,14.2834459 L24.9273244,14.2834459 C22.9437333,14.2834459 20.913054,14.025 18.8882607,13.5195946 L18.8882607,13.5195946 C16.3101809,12.8706081 13.932226,11.8597973 11.9015466,10.5733108 L11.9015466,10.5733108 C11.5719291,10.8260135 11.1540212,10.9810811 10.7007971,10.9810811 L10.7007971,10.9810811 C9.63542623,10.9810811 8.77018026,10.1368243 8.77018026,9.0972973 L8.77018026,9.0972973 C8.77018026,8.80439189 8.84081259,8.52297297 8.97030518,8.27601351 L8.97030518,8.27601351 C8.84669861,8.15540541 8.72309205,8.02905405 8.59948548,7.9027027 L8.59948548,7.9027027 C7.4281661,6.67939189 6.58057821,5.39864865 6.08615194,4.10067568 L6.08615194,4.10067568 C4.64407532,5.29527027 3.40212362,6.73108108 2.43092916,8.33344595 L2.43092916,8.33344595 Z" id="Fill-3"></path>
            </g>
        </g>
    </g>
</svg>