<?xml version="1.0" encoding="UTF-8"?>
<svg width="52px" height="44px" viewBox="0 0 52 44" version="1.1" xmlns="http://www.w3.org/2000/svg" xmlns:xlink="http://www.w3.org/1999/xlink">
    <!-- Generator: Sketch 46.2 (44496) - http://www.bohemiancoding.com/sketch -->
    <title>maps-and-flags copy</title>
    <desc>Created with Sketch.</desc>
    <defs>
        <radialGradient cx="87.8939207%" cy="0%" fx="87.8939207%" fy="0%" r="125.993016%" gradientTransform="translate(0.878939,0.000000),scale(1.000000,0.967359),rotate(132.398292),scale(1.000000,0.902295),translate(-0.878939,-0.000000)" id="radialGradient-1">
            <stop stop-color="#FFFFFF" stop-opacity="0" offset="0%"></stop>
            <stop stop-color="#000000" stop-opacity="0.6" offset="100%"></stop>
        </radialGradient>
    </defs>
    <g id="Page-1" stroke="none" stroke-width="1" fill="none" fill-rule="evenodd">
        <g id="maps-and-flags-copy">
            <path d="M24.1143034,13.2560279 C22.9103615,14.5209466 21.9089201,15.9076141 21.1024323,17.3656729 C15.6558647,26.7925128 16.84562,43.8102934 16.84562,43.8102934 C16.84562,43.8102934 35.9079082,39.9608535 43.8170479,32.4327536 C44.6084421,31.7724322 45.3897414,31.0887267 46.1253545,30.356951 C52.8527865,24.066351 53.3783403,16.0033943 47.3003877,11.3141577 C41.221385,6.2077588 30.8417354,6.61481412 24.1143034,13.2560279 Z" id="Imported-Layers-2" fill="url(#radialGradient-1)" opacity="0.580389493"></path>
            <path d="M34.0689655,17.0885083 C34.0689655,30.7719135 18.6704822,43.4446072 18.6704822,43.4446072 C17.770736,44.1851309 16.2982295,44.1851309 15.3984833,43.4446072 C15.3984833,43.4446072 0,30.7719135 0,17.0885083 C0.000171331267,7.65076155 7.6267257,0 17.0345256,0 C26.4423255,0 34.0689655,7.65076155 34.0689655,17.0885083 Z" id="Shape" fill="#D96C22" fill-rule="nonzero"></path>
            <g id="Group-2" transform="translate(6.574713, 6.630137)" fill="#FFE1D6">
                <path d="M0,10.2465753 C0,15.9064235 4.66146278,20.4931507 10.4135319,20.4931507 L10.4135319,20.4931507 C15.7399128,20.4931507 20.1340011,16.5572195 20.749666,11.4789337 L20.749666,11.4789337 C19.4937096,12.4793595 17.8191011,13.1716957 15.8911905,13.4624769 L15.8911905,13.4624769 C15.8454554,14.1651981 15.250899,14.7225287 14.5261734,14.7225287 L14.5261734,14.7225287 C13.8507011,14.7225287 13.2842894,14.2378934 13.1752288,13.6009441 L13.1752288,13.6009441 C12.0916585,13.5559422 10.9975341,13.3932432 9.91044577,13.1163088 L9.91044577,13.1163088 C6.98339896,12.3755091 4.43278725,10.8869863 2.73003405,8.92767494 L2.73003405,8.92767494 C1.88921171,7.96186598 1.30169149,6.93720844 0.981545748,5.89870418 L0.981545748,5.89870418 C0.351808512,7.21760459 0,8.69228064 0,10.2465753" id="Fill-1"></path>
                <path d="M10.4135319,0 C9.60437237,0 8.8163213,0.0900037023 8.06345109,0.263087745 L8.06345109,0.263087745 C8.11270428,0.342706405 8.16899364,0.418863384 8.225283,0.495020363 L8.225283,0.495020363 C9.2420096,1.84853758 10.8075575,2.84550167 12.6334437,3.3093669 L12.6334437,3.3093669 C12.8867458,3.37167716 13.1400479,3.42706405 13.39335,3.46860422 L13.39335,3.46860422 C13.5446277,3.17782303 13.8542192,2.98050722 14.2095458,2.98050722 L14.2095458,2.98050722 C14.6070894,2.98050722 14.9448256,3.22628656 15.0714766,3.57591633 L15.0714766,3.57591633 C16.0530224,3.54129952 16.9677245,3.34052203 17.7698479,2.99435394 L17.7698479,2.99435394 C15.8841543,1.14235468 13.2842894,0 10.4135319,0 Z" id="Fill-3"></path>
                <path d="M7.38094257,0.439633469 C6.21293832,0.789263236 5.13640427,1.33274713 4.1830032,2.03546835 L4.1830032,2.03546835 C4.43630533,2.8039615 4.92180108,3.57937801 5.62190002,4.31671603 L5.62190002,4.31671603 C5.68170746,4.38248797 5.745033,4.44479822 5.81187661,4.50710848 L5.81187661,4.50710848 C5.98426278,4.40671973 6.18479363,4.34787116 6.39587874,4.34787116 L6.39587874,4.34787116 C7.03617023,4.34787116 7.54981066,4.85673825 7.54981066,5.48330248 L7.54981066,5.48330248 C7.54981066,5.60792299 7.52870215,5.72562014 7.49000321,5.83639393 L7.49000321,5.83639393 C8.63689896,6.56680859 9.99136173,7.14490929 11.4548851,7.51530914 L11.4548851,7.51530914 C12.6088171,7.80955202 13.7697851,7.95840429 14.8990905,7.95840429 L14.8990905,7.95840429 C17.0627128,7.95840429 18.8921171,7.42876712 20.1128926,6.51488338 L20.1128926,6.51488338 C19.673132,5.40022214 19.0363586,4.38248797 18.2483075,3.49975935 L18.2483075,3.49975935 C17.3124969,3.93939282 16.2289266,4.1955572 15.0609224,4.23017401 L15.0609224,4.23017401 C14.9272351,4.56249537 14.5965351,4.79442799 14.2095458,4.79442799 L14.2095458,4.79442799 C13.7803394,4.79442799 13.4214947,4.50710848 13.3194703,4.11593854 L13.3194703,4.11593854 C13.0345054,4.07439837 12.7495405,4.0155498 12.4680937,3.9428545 L12.4680937,3.9428545 C10.4944479,3.44091077 8.79873088,2.35394298 7.69053406,0.882728619 L7.69053406,0.882728619 C7.58147343,0.737338023 7.47593087,0.588485746 7.38446066,0.439633469 L7.38446066,0.439633469 L7.38094257,0.439633469 Z" id="Fill-3"></path>
                <path d="M1.45296915,5.02289893 C1.66405426,6.2033321 2.26564682,7.39415031 3.23312022,8.50534987 L3.23312022,8.50534987 C4.84792129,10.3608108 7.27891811,11.7766383 10.0757958,12.4862829 L10.0757958,12.4862829 C11.1241851,12.7528323 12.1831288,12.9051462 13.228,12.9466864 L13.228,12.9466864 C13.4074224,12.4101259 13.9210628,12.0258793 14.5261734,12.0258793 L14.5261734,12.0258793 C15.0820309,12.0258793 15.5604905,12.3512773 15.7715756,12.8186042 L15.7715756,12.8186042 C17.8578001,12.5105146 19.6238788,11.7074047 20.8200277,10.5512033 L20.8200277,10.5512033 C20.8270639,10.4508145 20.8270639,10.3504258 20.8270639,10.2465753 L20.8270639,10.2465753 C20.8270639,9.16653091 20.6581958,8.12802666 20.3415681,7.15183265 L20.3415681,7.15183265 C19.0082139,8.07610144 17.1084479,8.6092003 14.8990905,8.6092003 L14.8990905,8.6092003 C13.7134958,8.6092003 12.4997564,8.45342466 11.2895351,8.14879674 L11.2895351,8.14879674 C9.74861386,7.7576268 8.32730747,7.14837097 7.11356811,6.37295446 L7.11356811,6.37295446 C6.91655534,6.52526842 6.6667713,6.6187338 6.39587874,6.6187338 L6.39587874,6.6187338 C5.75910534,6.6187338 5.24194682,6.10986672 5.24194682,5.48330248 L5.24194682,5.48330248 C5.24194682,5.30675676 5.28416385,5.13713439 5.36156172,4.98828212 L5.36156172,4.98828212 C5.28768193,4.91558682 5.21380214,4.83942984 5.13992236,4.76327286 L5.13992236,4.76327286 C4.43982342,4.02593484 3.93321916,3.25398001 3.63770001,2.47164013 L3.63770001,2.47164013 C2.77576916,3.19166975 2.0334532,4.05708997 1.45296915,5.02289893 L1.45296915,5.02289893 Z" id="Fill-3"></path>
            </g>
        </g>
    </g>
</svg>