<?xml version="1.0" encoding="UTF-8"?>
<svg width="538px" height="532px" viewBox="0 0 538 532" version="1.1" xmlns="http://www.w3.org/2000/svg" xmlns:xlink="http://www.w3.org/1999/xlink">
    <!-- Generator: Sketch 48.2 (47327) - http://www.bohemiancoding.com/sketch -->
    <title>user (4)</title>
    <desc>Created with Sketch.</desc>
    <defs>
        <path d="M318.136,455.514 L49.709,455.514 L49.709,371.009 C49.769,329.85 83.113,296.506 124.272,296.446 L221.999,296.446 L226.97,296.446 C308.612,296.784 375.082,230.88 375.42,149.229 C375.758,67.577 309.854,1.127 228.203,0.779 C146.552,0.431 80.101,66.354 79.753,147.996 C79.604,184.373 92.866,219.527 117.015,246.737 C51.25,250.635 -0.06,305.135 0,371.009 L0,480.368 C0,494.098 11.125,505.222 24.854,505.222 L318.136,505.222 C331.866,505.222 342.99,494.097 342.99,480.368 C342.99,466.639 331.866,455.514 318.136,455.514 Z M226.97,51.879 C280.815,53.42 323.216,98.307 321.675,152.151 C320.233,202.755 280.297,243.844 229.754,246.737 L221.999,246.737 C168.244,243.357 127.403,197.038 130.783,143.283 C133.985,92.332 175.929,52.476 226.97,51.879 Z" id="path-1"></path>
        <path d="M174.146,124.864 L25.019,124.864 C11.289,124.864 0.165,113.739 0.165,100.01 C0.165,86.281 11.29,75.156 25.019,75.156 L174.145,75.156 C187.875,75.156 198.999,86.281 198.999,100.01 C198.999,113.739 187.875,124.864 174.146,124.864 Z" id="path-2"></path>
        <path d="M99.583,199.427 C85.853,199.427 74.729,188.302 74.729,174.573 L74.729,25.446 C74.729,11.716 85.854,0.592 99.583,0.592 C113.312,0.592 124.437,11.717 124.437,25.446 L124.437,174.572 C124.437,188.302 113.312,199.427 99.583,199.427 Z" id="path-3"></path>
    </defs>
    <g id="Page-1" stroke="none" stroke-width="1" fill="none" fill-rule="evenodd">
        <g id="user-(4)" transform="translate(13.000000, 13.000000)" fill-rule="nonzero">
            <g id="Shape">
                <use fill="#FFFFFF" fill-rule="evenodd" xlink:href="#path-1"></use>
                <path stroke="#FFFFFF" stroke-width="13" d="M104.372853,241.54884 C84.1124853,214.691166 73.1143217,181.83975 73.253059,147.968294 C73.6163942,62.7286075 142.997753,-6.08420739 228.230703,-5.72094096 C313.473135,-5.35763413 382.272795,64.0163222 381.919944,149.255907 C381.567103,234.492087 312.179553,303.298825 226.97,302.946 L221.999,302.946 L124.281475,302.945993 C86.704924,303.000771 56.2637707,333.441924 56.209,371.009 L56.209,449.014 L318.136,449.014 C335.455546,449.014 349.49,463.048844 349.49,480.368 C349.49,497.687156 335.455546,511.722 318.136,511.722 L24.854,511.722 C7.53484416,511.722 -6.5,497.687546 -6.5,480.368 L-6.4999973,371.01492 C-6.55935522,305.84586 41.1595119,251.259725 104.372853,241.54884 Z M226.915054,58.3801799 C179.334575,59.0039709 140.256022,96.1795981 137.270189,143.690901 C134.119698,193.795827 172.132753,236.979946 222.206603,240.237 L229.564973,240.237 C276.654783,237.448428 313.833542,199.134107 315.17766,151.965048 C316.614643,101.755509 277.111818,59.8875191 226.915022,58.3801803 Z M226.915022,58.3801803 C226.871374,58.3788696 226.827717,58.3775894 226.784051,58.3763397 L227.046022,58.3785554 C227.002359,58.3790661 226.958703,58.3796076 226.915054,58.3801799 Z"></path>
            </g>
            <g id="Group" transform="translate(313.000000, 271.000000)">
                <g id="Shape">
                    <use fill="#FFFFFF" fill-rule="evenodd" xlink:href="#path-2"></use>
                    <path stroke="#FFFFFF" stroke-width="13" d="M174.146,131.364 L25.019,131.364 C7.69945408,131.364 -6.335,117.329156 -6.335,100.01 C-6.335,82.6911491 7.70014913,68.656 25.019,68.656 L174.145,68.656 C191.464546,68.656 205.499,82.6908442 205.499,100.01 C205.499,117.328961 191.464741,131.364 174.146,131.364 Z"></path>
                </g>
                <g id="Shape">
                    <use fill="#FFFFFF" fill-rule="evenodd" xlink:href="#path-3"></use>
                    <path stroke="#FFFFFF" stroke-width="13" d="M99.583,205.927 C82.2634541,205.927 68.229,191.892156 68.229,174.573 L68.229,25.446 C68.229,8.12645408 82.2638442,-5.908 99.583,-5.908 C116.901851,-5.908 130.937,8.12714913 130.937,25.446 L130.937,174.572 C130.937,191.891656 116.902046,205.927 99.583,205.927 Z"></path>
                </g>
            </g>
        </g>
    </g>
</svg>