<svg width="45" height="35" viewBox="0 0 45 35" fill="none" xmlns="http://www.w3.org/2000/svg">
<path d="M37.5 5.83301H11.25C9.18187 5.83301 7.5 7.14113 7.5 8.74967V16.0413H11.25V11.6663L23.25 18.6663C23.5747 18.8554 23.9694 18.9576 24.375 18.9576C24.7806 18.9576 25.1753 18.8554 25.5 18.6663L37.5 11.6663V24.7913H22.5V27.708H37.5C39.5681 27.708 41.25 26.3999 41.25 24.7913V8.74967C41.25 7.14113 39.5681 5.83301 37.5 5.83301ZM24.375 15.6768L12.4987 8.74967H36.2512L24.375 15.6768Z" fill="white"/>
<path d="M3.75 17.5H16.875V20.4167H3.75V17.5ZM7.5 21.875H18.75V24.7917H7.5V21.875ZM13.125 26.25H20.625V29.1667H13.125V26.25Z" fill="white"/>
</svg>
