<svg width="64" height="64" viewBox="0 0 64 64" fill="none" xmlns="http://www.w3.org/2000/svg">
<path d="M32.0001 10.6667C24.6481 10.6667 18.6667 16.6481 18.6667 24.0001H24.0001C24.0001 19.5894 27.5894 16.0001 32.0001 16.0001C36.4107 16.0001 40.0001 19.5894 40.0001 24.0001C40.0001 26.8507 38.7894 27.9067 36.0507 30.0134C35.0321 30.7974 33.8827 31.6827 32.7814 32.7814C29.2827 36.2774 29.3201 39.7254 29.3334 40.0001V45.3334H34.6667V39.9761C34.6667 39.9121 34.7281 38.3734 36.5521 36.5521C37.4054 35.6987 38.3707 34.9574 39.3014 34.2401C42.1281 32.0641 45.3334 29.6001 45.3334 24.0001C45.3334 16.6481 39.3521 10.6667 32.0001 10.6667ZM29.3334 48.0001H34.6667V53.3334H29.3334V48.0001Z" fill="white"/>
</svg>
